<svg version="1.2" xmlns="http://www.w3.org/2000/svg" viewBox="0 0 250 250" width="250" height="250"><style>.a{fill:#fff}.b{fill:#b3e1eb}.c{fill:#324c76}</style><path fill-rule="evenodd" class="a" d="m245.8 240.2c0.5 0.2 1 0.3 1.2 0.7 0.4 0.6 1 1 1.1 1.8 0.2 0.9-0.1 1.6-0.4 2.4-0.5 1.1-1.4 1.7-2.6 1.7-0.5 0.1-1 0.1-1.4 0.4-0.2 0.2-0.4 0.2-0.6 0.2-0.5-0.1-0.9 0-1.4 0.1q-1.1 0.2-2.3 0.2c-0.8 0-1.6-0.1-2.4-0.1q-1 0-2 0-1.1 0-2.2 0c-1 0-2-0.2-3-0.2-1.3 0-2.6-0.3-3.9 0-0.2 0-0.4 0-0.7-0.1-0.2 0-0.4-0.1-0.6-0.1-1.1 0.3-2.2 0.1-3.3 0-0.7 0-1.3 0-2 0.1-0.9 0.1-1.8 0.1-2.7 0-0.3 0-0.7 0-1.1 0-0.3 0.1-0.6 0-0.9-0.1-0.7-0.2-1.5-0.2-2.2-0.1-0.7 0.1-1.4 0.2-1.9 0.1-0.9-0.2-1.7 0-2.6 0-0.4 0.1-0.7 0.1-1.1-0.1-0.6-0.2-1.3-0.3-2-0.1-0.3 0.1-0.7 0.3-1.1 0.2-0.6-0.1-1.2-0.2-1.9 0-0.9-0.3-1.9 0.2-2.9-0.3-0.1 0-0.3 0-0.5 0.1-1 0.4-2-0.2-3 0-0.5-0.4-1-0.1-1.6 0-0.3 0-0.7 0.1-1.1-0.1-0.5-0.3-1.1-0.1-1.6 0-0.5 0.1-1 0.2-1.6 0-0.5-0.1-1.1-0.1-1.6-0.1-0.3 0-0.6 0-0.7 0.1-0.6 0.4-1.1 0.5-1.7 0.2-0.2 0-0.4 0-0.5 0-0.9 0.1-1.6-0.1-2.4-0.4q-0.8 0.6-1.7 0.2c-0.1 0-0.3 0-0.5 0-0.5 0-1.1 0.2-1.6 0.1-0.6-0.2-1.2-0.2-1.8 0-0.1 0.1-0.3-0.1-0.4-0.1-1 0-2-0.3-2.7 0.3-1-0.2-1.8-0.4-2.7-0.4-0.9 0.1-1.9-0.5-2.8 0.2 0 0.1-0.2 0.1-0.2 0.1-0.8 0-1.7 0.1-2.5 0.1-0.4 0-0.8 0-1.2-0.2-0.2-0.1-0.5-0.1-0.8-0.1-0.7 0.2-1.4-0.1-2.1 0.1-0.8 0.3-1.4 0-2.1-0.1-0.1-0.1-0.3 0-0.4 0-0.4-0.1-0.7 0.1-1.1-0.1-0.2 0-0.4 0.1-0.6 0.2-0.7 0.2-1.4 0.3-2.2-0.1-0.5-0.2-1.2-0.5-1.9-0.1-0.3 0.2-0.6 0.1-1 0.1-0.7-0.2-1.5-0.4-2.2-0.1-0.2 0-0.4-0.1-0.6-0.1-0.5-0.1-0.9-0.1-1.2 0.2-0.3 0.3-0.7 0.4-1.1 0.4-0.4 0.2-0.7-0.2-1.2-0.3-0.6 0.2-1.3 0.4-1.9 0-0.5-0.3-0.9-0.3-1.3-0.2-0.3 0-0.5-0.1-0.8-0.1-0.2 0-0.4-0.1-0.6-0.1-0.7 0.3-1.5 0.2-2.1 0.8-0.6-0.2-1-0.3-1.5-0.4-0.5 0.3-1.1 0-1.6 0.1-0.5 0.1-1.1-0.1-1.7-0.1q-0.3-0.1-0.6 0c-0.5 0-1 0.2-1.5-0.1-0.1-0.1-0.4-0.1-0.6 0-0.5 0.2-0.9 0.2-1.3 0-0.3-0.1-0.6 0-0.8 0q-0.5 0.2-1 0c-0.5-0.2-1.1-0.3-1.5 0.2-0.1 0.1-0.3 0.1-0.4 0.1-0.8-0.3-1.6-0.1-2.3 0.2-0.8 0.2-1.6-0.3-2.5 0-0.1 0-0.2-0.1-0.3-0.1-0.4-0.1-0.8-0.2-1.2-0.1-0.7 0-1.5 0.2-2.3 0.4-0.3-0.5-0.8-0.8-1.5-0.6-0.1 0.1-0.3 0-0.5 0-0.7 0-1.4 0-2.1 0.3-0.5 0.2-1 0.3-1.5 0.1-0.2-0.1-0.5-0.1-0.8 0-1 0.5-2.1 0.1-3.2 0.3-1.1-0.5-2.4 0-3.5-0.4-0.1-0.1-0.3 0-0.4 0-0.6 0.2-1.2 0.2-1.8 0.1-1 0-2 0.1-2.9 0.1-0.3 0-0.6 0-0.8 0.1-0.2 0.2-0.5 0.2-0.8 0.2-1.5-0.4-2.9-0.5-4.4-0.3-0.6 0.1-1.2 0-1.8-0.2-0.7-0.1-1.3-0.1-1.7 0.4-0.8-0.2-1.4-0.6-2.1 0q-0.1 0-0.2 0c-0.6-0.3-1.3 0-2 0-0.8-0.1-1.8 0.1-2.6-0.4-0.4-0.2-0.7-0.1-1.1 0.1q-0.6 0.3-1.3 0c-0.4-0.2-0.8-0.3-1.2-0.2-1 0.1-2.1 0.3-3.3 0.1-0.1 0-0.3 0.1-0.4 0.2-0.4 0.2-0.8 0.2-1.2 0-0.5-0.3-1-0.3-1.6-0.2-0.4 0-0.8 0-1.2-0.1-0.6-0.3-1.1-0.2-1.7 0-0.6 0.2-1.3 0.3-1.9 0.5-0.5-0.4-1.1-0.8-1.7-0.7-0.7 0.2-1.4 0.1-2.1 0.2-0.6 0.1-1.1 0.3-1.6-0.1-0.1-0.1-0.2 0-0.4 0-0.9 0.1-1.9 0.3-2.8 0-0.2 0-0.4 0.1-0.7 0.1-0.3 0.1-0.7-0.1-1.1-0.2q-1.1-0.3-2.2-0.3c-0.8 0-1.6 0.3-2.4 0q-1.9 0.2-3.8 0.3c-0.7 0.1-1.3 0.2-1.9-0.2-1.1 0.5-1.2 0.5-2.5 0.3-0.4-0.1-0.8-0.2-1.1-0.1-0.5 0.1-1 0.1-1.4-0.1-0.7-0.2-1.5-0.2-2.1 0-0.5 0.2-1 0.1-1.4 0.1-0.5 0.1-0.9 0.3-1.5 0-0.2-0.1-0.6 0-0.8 0.2-0.6 0.3-1.1 0.3-1.7 0.1-0.2-0.1-0.5-0.2-0.7-0.1-0.6 0.2-1.3 0.3-2 0.1-0.1-0.1-0.3 0-0.5 0-0.9 0.1-1.9 0.2-2.9 0.3-1 0-2.1 0-3.2 0-0.1 0-0.3 0-0.5 0-0.8-0.2-1.7-0.1-2.6-0.1-1.6 0.1-3.2 0-4.7 0-0.9 0-1.8-0.2-2.7 0.1-0.1 0.1-0.3 0-0.5 0-0.9-0.2-1.9-0.1-2.9-0.1-0.7 0-1.4 0.2-2-0.1-1.3 0.2-2.6 0.1-3.9 0.1-0.7-0.1-1.4 0-2.1 0q-1.1 0-2.1 0c0-0.1-0.1-0.2-0.1-0.3 0.4-1.2 1.3-1.9 2.1-2.8 0.2-0.1 0.4-0.1 0.5-0.2 1.8-1 3.6-1.3 5.6-1.1q0.1 0 0.2 0c0.2 0.1 0.4 0.1 0.6 0.2-0.1 0.4-0.2 0.7-0.3 1 0 0.2 0.1 0.4 0.2 0.5 0.1 0 0.3 0 0.5 0 0.2-0.1 0.4-0.3 0.5-0.5 0.3-0.7 1.3-1 1.4-1.9 0.8-0.7 1.1-1.9 2.2-2.3 0.2-0.1 0.4-0.3 0.6-0.5 0.5-0.4 0.9-1 1.7-1.1 0.2 0 0.4-0.2 0.6-0.4 0.2-0.1 0.4-0.4 0.6-0.5 0.8-0.3 1.5-0.6 2.3-0.8 1.2-0.3 2.5-0.4 3.7-0.8 0.7-0.1 1.3-0.1 1.9 0.1 0.5 0 1 0.2 1.5 0.3 0.1 0.5 0.2 1 0.4 1.6q0.1 0.3 0.3 0.6c0.1 0.1 0.3 0.1 0.4 0.1 0.1 0 0.2-0.2 0.2-0.3-0.2-0.6-0.1-1.3 0-1.9 0-0.8 0-1.5 0.3-2.2 0.3-0.7 0.3-1.5 0.6-2.2 0.4-0.7 0.6-1.3 1-1.9q0.6-1.1 1.2-2c0.4-0.5 0.8-0.9 1.2-1.3 0.4-0.5 0.8-1 1.2-1.5 0.5-0.4 1.1-0.7 1.4-1.3 0.1-0.2 0.4-0.3 0.7-0.4 1.2-0.4 2.5-0.6 3.6-1.2 0.6 0 1 0 1.5-0.4 0.1-0.1 0.4 0 0.6 0q1.2 0 2.4 0.1c0.8 0 1.6 0 2.4 0.4 0.3 0.1 0.6 0.2 1 0.2 0.4 0 0.7 0.3 0.9 0.7 0.2 0.3 0.3 0.7 0.3 1.1-0.1 0.5 0 1 0.2 1.5 0.1 0.1 0.2 0.4 0.1 0.6-0.2 0.8 0.2 1.6 0.5 2.3 0.8 1.8 2 3.3 3.4 4.8 0.2 0.2 0.5 0.4 1 0.4-0.4-0.5-0.7-0.9-1-1.4-0.4-0.5-0.9-1-1.1-1.7-0.6-1.4-1.1-2.8-1.4-4.3-0.3-1.4-0.2-2.7 0.2-4 0.2-0.5 0.6-0.9 0.3-1.5 0-0.1 0.1-0.3 0.2-0.4 0.1-0.2 0.3-0.4 0.4-0.7 0.7-1.1 1.5-2.2 2.2-3.3 0.3-0.4 0.6-0.6 1-0.9 0.5-0.4 1.1-0.7 1.7-1.2q0.5-0.5 1.2-0.5 0.8 0.1 1.4-0.5c0.3-0.3 0.6-0.4 1-0.4 0.6 0 1.2-0.1 1.6-0.3 0.8-0.4 1.5-0.4 2.3-0.3 0.6 0 1.2 0.3 1.9 0 0 0 0.2 0 0.2 0.1 0.4 0.4 1.1 0.3 1.6 0.7 0.4 0.3 0.9 0.4 1.4 0.5 0.3 0 0.6 0.1 0.8 0.5 0.2 0.5 0.7 0.7 1.2 0.9 0.5 0.3 1.1 0.3 1.5 0.6 0.5 0.3 0.8 0.9 1.3 1.2 0.2 0.1 0.3 0.3 0.4 0.5 0.9 1.4 2 2.7 2.4 4.4 0 0.1 0.3 0.3 0.6 0.5 0.1-0.4 0.2-0.6 0.2-0.9-0.1-1.5-0.8-2.9-1.6-4.2q-1.7-2.8-4.4-4.5c-0.7-0.5-1.2-1.2-1.9-1.5-0.7-0.4-1.6-0.6-2.4-0.9-0.3 0-0.5-0.3-0.8-0.3-0.2-0.1-0.5 0-0.9 0.1-0.1-0.6-0.2-1.1-0.2-1.6 0-0.2 0-0.5 0.1-0.6 0.2-0.3 0.3-0.7 0.4-1 0.1-0.4 0.4-0.6 0.7-0.9 0.1-0.2 0.3-0.4 0.4-0.7 0.4-0.9 1.2-1.5 2.1-1.8 0.6-0.3 1.2-0.4 1.9-0.4 0.9 0.8 1.5 2 2.8 2.4-0.7-0.6-1.1-1.5-1.6-2.2-0.9-1.2-1.5-2.6-1.9-4-0.2-0.4-0.2-0.9-0.2-1.3 0-1 0.1-2.1 0.4-3.2 0.1-0.3 0-0.8 0.1-1.1 0.7-0.8 0.7-2 1.4-2.8 0.3-0.4 0.4-1 0.9-1.2 0.1-0.1 0.2-0.2 0.2-0.3 0.1-0.6 0.5-0.8 0.9-1 0.3-0.2 0.5-0.4 0.7-0.6 0.2-0.1 0.3-0.3 0.5-0.5 0.6-0.3 1.1-0.6 1.7-0.9 0.9-0.6 1.8-0.8 2.9-0.7 0.6 0.1 1.1-0.1 1.7 0.1 0.9-0.4 1.8-0.1 2.7 0 0.8 0.1 1.6 0.6 2.5 0.9 0.2 0.1 0.3 0.4 0.5 0.5-0.3 0.9-1.1 1.5-1 2.4-0.6 2.2-0.3 4.3 0.1 6.5q0.2 1 0.9 1.8c0.1 0.1 0.3 0.2 0.4 0-0.2-0.4-0.4-0.7-0.6-1.1q-0.3-0.6-0.4-1.2-0.1-0.7-0.1-1.3c-0.1-1.6-0.2-3.1 0.6-4.5 0.5-0.9 0.7-1.9 1.6-2.5 0.1-0.1 0.2-0.2 0.2-0.3 0.4-0.7 0.9-1.1 1.7-1.3 0.3-0.1 0.5-0.5 0.8-0.6 0.3-0.1 0.6-0.1 1-0.1q0-0.1 0.1-0.1c0.3-0.5 0.9-0.5 1.5-0.6q1.1-0.3 2.2-0.5c1.1 0.3 2.3 0.7 3.5 1 0.9 0.2 1.6 0.6 2 1.5 0.1 0.1 0.2 0.2 0.3 0.3 0.5 0.3 0.8 0.8 1.1 1.3q0.4 0.8 0.8 1.5c0.4 0.5 0.8 1 0.7 1.7-0.2 0.9 0 1.7 0.2 2.5-0.5 1.2-0.5 1.2-0.4 1.9 0 0 0.1 0 0.2 0 0.4-0.6 0.9-1.2 1.2-1.8 0.3-0.6 0.3-1.2 0.4-1.7-0.1-0.7-0.2-1.2-0.3-1.8-0.1-1-0.1-2-1-2.7-0.1-0.2-0.2-0.4-0.2-0.6-0.2-1-1-1.6-1.8-2-0.4-0.2-0.7-0.3-1-0.6-0.5-0.4-1-0.7-1.6-0.6-0.2-0.3-0.4-0.5-0.4-0.6-0.9-0.2-1.6-0.3-2.3-0.5-0.3 0-0.7 0-1 0.1-0.2 0.1-0.4 0.2-0.6 0.3-0.8-0.8-1.7-0.1-2.6-0.1q-0.3-0.1-0.7 0c-0.2 0.1-0.3 0.3-0.4 0.4-0.2 0.1-0.3 0.2-0.5 0.2-0.6 0.1-1 0.4-1.4 0.7-1 0.6-1.8 1.3-2.7 2.2q-0.6-0.4-1.1-0.7c-0.4-0.2-0.8-0.4-1.2-0.6q-2-0.7-4.2-1c-1-0.2-2-0.4-3 0-0.1 0-0.3-0.1-0.4-0.4 0.3-0.2 0.7-0.5 0.9-0.9 0.5-1 1.6-1.5 2.3-2.2 0.6-0.6 1.5-0.8 2.1-1.4 0.1-0.1 0.2-0.1 0.3-0.1 1.1-0.3 2-1 2.9-1.5 0.5 0 0.9 0.1 1.3 0 0.4-0.1 0.7-0.3 1.1-0.3 0.2 0.1 0.4 0 0.5-0.1 0.2-0.2 0.4-0.2 0.7-0.1 0.5 0.2 1 0.2 1.6-0.1 0.3-0.1 0.6-0.1 1 0q1.1 0.3 2.3 0.4c1.2 0.2 2.2 0.8 3.3 1.3 0.9 0.3 1.5 1 2.3 1.6 0.3 0.3 0.5 0.6 1 0.6 0-0.2 0.1-0.3 0-0.4q-0.9-1.2-1.9-2.4c-0.1-0.2-0.4-0.3-0.6-0.5-0.9-0.6-2-1-3.1-1.5 0.5-0.7 1.3-1 1.8-1.6 0.4-0.3 0.8-0.6 1.3-0.8 0.7-0.3 1.5-0.4 2.3-0.6 0.4-0.1 0.8-0.1 1 0.1 0.6 1 1.2 2 1.8 2.9 0.1 0.2 0.4 0.3 0.6 0.4 0.1-0.6 0-1.1-0.2-1.6-0.3-0.8-0.5-1.7-0.8-2.5-0.4-0.9-0.6-1.8-0.8-2.7-0.3-1.2-0.6-2.4-0.4-3.5 0.1-1.2-0.2-2.5 0.5-3.5 0.1-0.1 0.1-0.3 0.1-0.4-0.1-0.5 0.2-0.8 0.5-1.1 0.2-0.2 0.4-0.4 0.4-0.6 0-0.6 0.2-1 0.7-1.3 0.2-0.1 0.3-0.3 0.4-0.5 0.2-0.3 0.4-0.7 0.6-1q0.5-0.5 1.1-1 0.5-0.5 1.2-1c0.5-0.3 0.8-0.8 1.5-0.9 0.4-0.6 1-0.6 1.6-0.7 0.2 0 0.4-0.1 0.5-0.2 0.3-0.2 0.7-0.3 1.1-0.3 0.2 0.1 0.4 0 0.6 0 0.7-0.1 1.4-0.2 2-0.2 0.4 0.1 0.9 0.2 1.3 0 0.1-0.1 0.3-0.1 0.5 0q0.7 0.1 1.3 0.2c0.3 0 0.5 0 0.7 0.1q1 0.4 2 0.8c0.1 0 0.3 0 0.5 0.1q1.4 1 2.9 2c0.2 0.1 0.3 0.2 0.4 0.3 0.5 0.6 0.9 1.1 1.4 1.8-0.4 0.2-0.8 0.5-1.2 0.8q-2.1 1.9-4.1 3.8-0.4 0.3-0.6 0.7c-0.1 0.1 0 0.3 0 0.4 0 0.1 0.3 0.1 0.4 0q0.1 0 0.3-0.1c1.4-1.1 2.8-2.3 4.3-3.2 0.4-0.6 1.2-0.6 1.6-1 0.5-0.5 1.1-0.7 1.8-1 0.6-0.2 1.4-0.2 1.8-1.1 0.5 0.3 0.9 0.3 1.3-0.1 0.2-0.1 0.5-0.1 0.8-0.2 0.8-0.1 1.6 0 2.4-0.2 0.4-0.1 0.8-0.2 1.2-0.2 1.1 0 2.3 0.4 3.4 0.2q0.1 0 0.3 0 1.2 0.4 2.3 0.8c0.1 0 0.2 0.1 0.2 0.2 0.3 0.5 0.7 0.6 1.2 0.6 0.7 0.1 1.3 0.3 1.8 0.9 0.3 0.3 0.8 0.6 1.2 0.9 0.8 0.5 1.7 0.7 2.1 1.6 0.1 0 0.2 0.1 0.3 0.1 0.3 0.1 0.4 0.3 0.6 0.6q0.7 1.5 1.9 2.6c0.2 0.2 0.4 0.5 0.4 0.7-0.1 0.7 0.4 1.2 0.6 1.9 0.3 0.6 0.8 1.2 0.5 2-0.1 0.2 0 0.4 0 0.6 0.1 0.2 0.2 0.4 0.2 0.6q0 1.7 0 3.4 0 0.3-0.1 0.6c-0.2 0.6-0.4 1.1-0.3 1.7 0 0.3-0.1 0.6-0.2 0.8-0.5 0.6-0.8 1.3-1.2 1.9-0.4 0.7-0.8 1.5-1.5 2-0.2 0.1-0.2 0.4-0.3 0.5 0.4 0.3 0.6 0 0.8-0.2 1.3-1.1 2.4-2.3 3.1-3.9 0.4-0.1 0.9-0.2 1.4-0.3 1-0.3 2-0.2 3 0 0.7 0.1 1.4 0.2 2.1 0.4 0.7 0.2 1.3 0.5 2.1 0.5q0.1 0 0.2 0.1c0.5 0.4 1.1 0.8 1.8 0.9 0.8 0.7 1.7 1.1 2.4 1.9 0.4 0.4 0.7 0.9 1.1 1.3 0.6 0.6 1.1 1.3 1.4 2.1 0.6 1.8 0.6 1.8 0.7 3.6 0 1 0.1 2-0.2 3-0.1 0.2-0.1 0.4-0.1 0.6 0 0.3 0 0.5-0.1 0.7-0.2 0.5-0.5 1.1-0.5 1.8 0.1 0.1-0.1 0.3-0.2 0.4-0.3 0.4-0.8 0.7-1 1.2-0.1 0.4-0.3 0.7-0.6 1-0.3 0.5-0.6 0.9-1 1.5 0.3 0 0.6 0.1 0.7 0 0.6-0.4 1.2-0.7 1.7-1.2 0.3-0.3 0.8-0.7 0.8-1.2 0.1-0.6 0.5-1.1 0.8-1.6 0.3-0.4 0.5-0.8 0.4-1.3-0.1-0.3 0.1-0.6 0.3-0.8 0.6-0.5 0.7-1.1 0.6-1.9-0.1-0.3-0.2-0.8 0-1.1 0.3-0.8 0-1.6 0.2-2.4 0-0.1-0.1-0.3-0.2-0.5 0-0.2-0.2-0.3-0.3-0.5-0.1-1.4-1.1-2.4-1.4-3.7 0-0.1-0.1-0.2-0.2-0.3-0.5-0.2-0.8-0.8-1.3-1-0.3 0-0.3-0.2-0.4-0.4-0.3-0.4-0.6-0.8-1-1.1-0.1-0.1-0.4-0.2-0.6-0.3-0.7-0.3-1.4-0.6-1.9-1.2q-0.1-0.1-0.3-0.2c-1.1-0.4-2.2-0.7-3.2-1.1-1.1-0.3-2.1-0.4-3.1-0.3q-1.2 0.2-2.3 0.2c-0.3 0-0.5-0.1-0.8-0.1 0.1-0.8 0.2-1.4 0.3-2 0.2-0.7 0-1.4 0.4-2 0.5 0 1 0 1.4-0.2 0.8-0.3 1.7-0.1 2.4-0.7 0.1-0.1 0.3-0.1 0.4-0.1 0.5 0.3 1.1 0.1 1.6 0.2 0.3 0 0.6-0.1 0.8 0.1 0.5 0.3 1.1 0.2 1.7 0 0.6 0.7 1.2 1.3 2.1 1.4 0.1 0 0.2 0.2 0.3 0.2 0.9 0.4 1.5 1.2 2.1 1.8 0.2 0.2 0.3 0.5 0.4 0.8-0.4 0.4-0.9 0.5-1.3 0.8-0.1 0-0.2 0.2-0.2 0.4 0 0.1 0.1 0.3 0.2 0.4 0.5 0 0.9 0.4 1.3 0.4 0.6 0.1 1.2 0.6 1.8 0.2 0.7-0.4 1.3 0.2 2 0.1 0.2 0 0.4 0.2 0.7 0.2 0.3 0.2 0.6 0.3 0.9 0.4 0.9 0.4 2 0.2 2.8 0.9 0.1 0.2 0.4 0.1 0.6 0.1q0.4 0.1 0.9 0c0.4 0.7 0.8 1.4 1.6 1.8q0.1 0 0.2 0.1c0.4 0.7 1.1 1 1.8 1.2 0.1 0.9 0.9 1.2 1.3 1.5 0.3 0.5 0.3 1 0.6 1.3 0.5 0.4 0.7 0.9 0.9 1.4 0.3 0.6 0.4 1.2 1 1.5 0.2 0.2 0.3 0.6 0.2 0.9-0.2 0.5 0 1 0.2 1.4 0.3 0.7 0.4 1.4 0.4 2.1 0 1.6 0 3.1-0.6 4.6q0 0 0 0.1c-0.1 0.4-0.3 0.8-0.4 1.1-1.2 0.4-1.3 0.4-2.3 0.2-0.2-0.1-0.4-0.1-0.6 0q-1.1 0.4-2.1 0.9c-0.1 0-0.2 0.2-0.2 0.3 0 0.1 0.1 0.2 0.2 0.3 0.3 0 0.5 0.1 0.8 0.1 0.9 0.2 1.9 0.4 2.7-0.1 0.5 0.2 0.8 0.5 1.2 0.6 0.7 0.2 1.2 0.6 1.5 1.3 0.2 0.4 0.5 0.8 0.7 1.2 0.2 0.4 0.3 0.9 0.4 1.3 0.1 0.6-0.1 1.1-0.1 1.6q0 0.9-0.1 1.7c0 0.1-0.1 0.2-0.1 0.4-0.1 0.1-0.1 0.3 0.1 0.4 0.5-0.2 0.7-0.6 0.8-1q0.3-0.9 0.6-1.7c0.4-0.3 0.9-0.3 1.2 0 0.4 0.3 0.8 0.3 1.2 0.4 0.5 0.1 1 0.3 1.5 0.5 0.3 0.1 0.5 0.3 0.7 0.3 0.8 0.3 1.5 0.7 1.9 1.5 0.1 0.2 0.2 0.4 0.4 0.5 0.5 0.2 0.8 0.6 0.9 1.1 0.1 0.6 0.8 0.8 0.8 1.4 0 0.1 0.1 0.1 0.1 0.1-0.1 0.6 0.2 1.1 0.3 1.6 0.1 0.9 0.3 1.7-0.1 2.5 0 0.1 0.1 0.1 0.1 0.2 1.1-0.4 1.1-1.3 1.1-2.2 1.4-0.5 2-0.4 2.8 0.6q0.4 0.5 0.8 1c0.1 0.2 0.1 0.5 0.1 0.7-0.5 0.4-0.9 0.8-1.4 1.1 0.1 0.2 0.2 0.4 0.2 0.4 0.5 0 0.9 0.1 1.3 0 0.6 0 1.3-0.2 1.9-0.2 0.6 0 1.3 0.4 2 0 0-0.1 0.2 0 0.3 0.1 0.6 0.2 1.2 0.4 1.7 0.5 1.1 0.3 2.1 0.9 3.1 1.4 0.5 0.3 0.6 0.9 1 1.2 0.8 0.6 1.3 1.4 1.7 2.3 0.1 0.3 0.2 0.5 0.4 0.7 0.5 0.4 0.7 1 0.7 1.6 0 0.7 0.2 1.4 0.5 2 0.1 0.2 0.3 0.4 0 0.7-0.3-0.1-0.7 0-1-0.2-1.5-0.6-3.1-0.5-4.7-0.5q-0.7 0-1.4 0.3c-0.8 0.3-0.9 0.3-1.5-0.6-0.2-0.3-0.4-0.6-0.8-0.8-0.2-0.1-0.4-0.3-0.5-0.5-0.6-0.4-1-1.2-1.9-1.2-0.1 0-0.2-0.2-0.3-0.2-0.4-0.3-0.7-0.6-1.2-0.7-1.4-0.4-2.6-1.3-4.2-1.4-0.9-0.5-2-0.2-3-0.4-0.1 0-0.3 0-0.5 0.1q-1.5 0.1-3 0.2c-0.4-0.5 0.1-1 0-1.4-0.2-0.3-0.4-0.6-0.5-0.9-0.1-0.6 0-1.2-0.1-1.8 0-0.2 0.1-0.3 0-0.5-0.4-0.7-0.8-1.5-1.2-2.2-0.4-0.6-0.4-1.2-0.9-1.7-0.1 0-0.1-0.2-0.1-0.3 0-0.7-0.4-1.2-0.9-1.6q-0.5-0.5-0.9-1c-0.5-0.6-1.1-1.1-1.5-1.7-0.5-0.6-1.1-1-1.7-1.5-0.5-0.4-1.1-0.8-1.7-1.1-1-0.3-1.9-0.9-2.9-1.2-0.8-0.3-1.5-0.6-2.3-0.6-0.8-0.1-1.6 0-2.3-0.5-1-0.1-2-0.5-3.1-0.1-0.3 0.1-0.7 0.1-1.1 0-0.6-0.1-1.3-0.3-1.9 0.2 0 0-0.2 0-0.3 0q-1.4-0.2-2.7 0.4c-0.3 0.2-0.7 0.3-1 0.3-1.1 0-2.2 0.4-3.1 0.9-1.6 0.7-2.9 1.9-4.3 2.9-0.1 0.1-0.2 0.3-0.1 0.4 0.1 0.1 0.3 0.3 0.4 0.2q0.7-0.3 1.5-0.7c0.3-0.1 0.6-0.4 0.9-0.4 0.6-0.2 1.1-0.6 1.6-1 0.2-0.1 0.4-0.3 0.6-0.3 0.6 0 1.1-0.3 1.6-0.6 0.8-0.5 1.6-0.5 2.4-0.7 0.5 0.3 1-0.1 1.5-0.1 0.5-0.1 1-0.4 1.6-0.1 0.1 0 0.4 0 0.5-0.1 0.5-0.2 0.9-0.2 1.4-0.1 0.6 0 1.1 0.2 1.7 0.3 0.6 0.1 1.2 0.3 1.8 0.3 0.9-0.1 1.8 0.1 2.6 0.3 0.7 0.2 1.3 0.4 2 0.6 0.5 0.1 0.9 0.2 1.3 0.7 0.3 0.4 0.8 0.7 1.3 0.9 0.8 0.2 1.3 0.7 2 1.1 0.2 0 0.4 0.2 0.4 0.3 0.1 0.6 0.7 0.7 1 1.1 0.5 0.5 1.1 1 1.4 1.8 0.2 0.4 0.6 0.8 0.9 1.2 0.2 0.2 0.4 0.4 0.4 0.6 0.1 0.9 0.5 1.5 0.9 2.2 0.3 0.5 0.4 0.9 0.5 1.5 0.1 1.3 0.3 2.7 0.8 4-0.6 0.8-0.2 1.7-0.3 2.6 0.3 0.5 0.1 0.9 0 1.4-0.3 0.9-0.7 1.8-0.6 2.8 0 0.2-0.2 0.4-0.3 0.6-0.3 0.7-0.5 1.5-0.4 2.4 0.3-0.2 0.5-0.2 0.6-0.3q0.9-1 1.2-2.3c0.1-0.5 0.3-0.9 0.6-1.4 0.2-0.3 0.4-0.7 0.4-1.1 0.1-1.3 0.3-2.5 0.6-3.7 0.1 0 0.2-0.1 0.4 0q1.6 0.2 3.3 0c1-0.1 2 0.1 3 0.4 0.6 0.2 1.2 0.4 1.9 0.5 0.1 0.1 0.4 0.1 0.5 0.1 0.4 0.8 1.2 0.8 1.8 1.1 0.5 0.1 0.9 0.4 1.3 0.8q0.4 0.4 0.8 0.9c0.7 0 0.6 0.7 1 0.9 0.9 0.4 1 1.5 1.7 2.1 0 0.5 0.3 0.8 0.5 1.1 0.3 0.4 0.3 0.9 0.8 1.2 0.1 0.1 0.2 0.3 0.2 0.4q0.3 1.8 1.1 3.4c0.3 0.5 0.6 1.1 1 1.6 0.1 0.1 0.2 0.1 0.4 0.2 0.1-0.5-0.2-0.8-0.3-1.1-0.2-0.4-0.4-0.8-0.4-1.2-0.2-1-0.3-2-0.9-2.9-0.1-0.2-0.2-0.5-0.2-0.8 0.1-0.5-0.1-0.9-0.4-1.3-0.2-0.3-0.3-0.7-0.4-1.1 0.4-0.1 0.7-0.2 1-0.2 2-0.2 3.8 0.2 5.6 1 1.2 0.4 2.1 1.2 3.1 1.9 0.6 0.5 1.1 1.1 1 2.1-0.2 0.1-0.4 0.2-0.6 0.3-0.2 0.1-0.5 0.1-0.6 0.3-0.4 0.3-0.9 0.7-1.4 0.8-0.2 0.1-0.4 0.4-0.5 0.6-0.1 0.1-0.1 0.2 0 0.3 0 0.1 0.2 0.2 0.3 0.1 0.2 0 0.4 0 0.5-0.2 0.4-0.4 1-0.7 1.6-0.9q1.9-0.8 3.8-1.4c0.8-0.2 1.6-0.3 2.3-0.8 0.2-0.2 0.7-0.3 1.1-0.2 0.6 0.2 1.1 0.1 1.7 0 0.5-0.2 0.9-0.2 1.4 0 0.5 0.2 1 0.2 1.5 0 0.4-0.2 1-0.1 1.3 0.3 0.4 0.4 1 0.3 1.5 0.6 0.7 0 1.3 0.5 1.8 0.8 0.6 0.3 1.1 0.6 1.6 1 0.1 0.1 0.2 0.2 0.3 0.3 0.1 0.2 0.3 0.5 0.6 0.6 0.5 0.5 0.8 1.2 1.2 1.7 0.4 0.6 0.6 1.3 0.3 2.1-0.2 0.4-0.2 1-0.2 1.5 0.1 0 0.2 0 0.3 0 0.4-0.1 0.7-0.4 0.8-0.9 0.1-0.3 0.3-0.6 0.4-0.9 0.3-0.4-0.1-0.7-0.1-1.1-0.1-0.3 0.1-0.5 0.2-0.8 1.2-0.2 2.4 0.1 3.5 0.4zm-133.6-3.8q-0.1-1-0.2-1.9c-0.1-0.2-0.1-0.5-0.2-0.6-0.1-0.4-0.1-0.7 0-1q0.1-0.8 0.4-1.5c0.2-0.4 0.4-0.8 0.7-1.2 0.4-0.4 0.6-1.1 0.9-1.6 0.1-0.2 0.2-0.5 0.4-0.5 0.6-0.3 0.8-0.9 0.9-1.3 0.9-0.5 1.5-0.9 2.2-1.3q0.3-0.2 0.6-0.3 1.1-0.3 2.2-0.6 0.2-0.1 0.4-0.1c0.6-0.1 1.1 0.2 1.7-0.1 0.5-0.3 1.2-0.1 1.8-0.4 0.3-0.1 0.6 0.1 1 0.1 0.7 0.1 1.3 0 2 0.2 0.5 0.2 1.1 0.1 1.6 0.1 1 0 1.8 0.2 2.5 0.8 0.9 0.7 1.8 1.2 2.7 1.8 0.6 0.4 1.2 0.8 1.6 1.5 0.4 0.8 1 1.3 1.4 2 0.1 0.3 0.5 0.5 1.1 0.8 0.1-0.6 0.1-1.2-0.4-1.6-0.1-0.1-0.2-0.3-0.3-0.5-0.2-1-0.9-1.7-1.5-2.5-0.5-0.7-1.2-1.2-1.9-1.8-0.1-0.1-0.3-0.1-0.4-0.2-0.6-0.3-1.2-0.5-1.5-1.2q0.1-0.7 0.2-1.5c0.1-0.2 0-0.4 0.1-0.5 0.6-0.5 0.6-1.2 0.8-1.8 0.1-0.2 0.2-0.4 0.3-0.5 0.5-0.3 0.7-0.7 1-1.3q0.3-0.6 0.9-1 0.2 0 0.3-0.2c1.2-1 2.7-1.1 4.1-1.2 0.2 0 0.4 0.2 0.6 0.2 0.2 0.1 0.5 0.2 0.7 0.1 0.9-0.3 1.6 0 2.2 0.5q0.5 0.4 1.1 0.6c0.2 0 0.3 0 0.6 0-0.2-0.6-0.5-1-1-1.3q-1.9-0.9-3.8-1.9c-0.2-0.1-0.4-0.1-0.7 0-0.4 0.1-0.9 0.2-1.3 0.1-0.8-0.2-1.5 0.1-2.2 0.3-0.3 0.1-0.6 0.3-1 0.3-0.7 0.1-1.1 0.5-1.5 1q-0.3 0.5-0.7 0.8c-0.1 0.2-0.3 0.4-0.4 0.4-0.8 0.1-0.9 1-1.6 1.1-0.1 0.3-0.3 0.6-0.4 0.9-0.2 1.1-0.3 2.2-0.2 3.3 0 0.2 0 0.5 0 0.8-1.5-0.3-2.9-0.6-4.2-1-0.3 0-0.6-0.1-0.8-0.1-0.9 0.2-1.8 0-2.6 0.3-0.2 0.1-0.5 0.1-0.7 0.1-0.6-0.3-1.1 0-1.7 0.1-0.5 0.1-0.9 0.2-1.3 0.5-0.6 0.5-1.3 0.6-2.1 0.7-0.2 0.1-0.4 0.1-0.5 0.2-0.9 0.8-2.1 1.4-2.7 2.6-0.2 0.3-0.5 0.6-0.9 0.7-0.4 0.2-0.7 0.5-0.8 0.9-0.1 0.3-0.3 0.5-0.5 0.7-0.1 0.2-0.3 0.4-0.3 0.6 0.2 0.8-0.4 1.4-0.6 2.2-0.2 0.8-0.5 1.6 0.1 2.4 0 0.1 0.1 0.3 0.1 0.5 0 0.9 0.3 1.7 0.7 2.4 0.2 0.4 0.2 1 0.8 1.3 0.3-0.5 0.2-1 0.2-1.4z"/><path class="a" d="m18.2 231.7c0.3-0.9 0.4-1.9 1.2-2.6 0.1-0.6 0.7-1 0.9-1.5 0.1-0.5 0.4-0.8 0.6-1.3 0.2-0.4 0.7-0.8 0.8-1.2 0.2-0.6 0.8-0.5 1.1-0.9 0.2-0.2 0.5-0.4 0.7-0.7 0.6-0.8 1.3-1.4 2.3-1.6 0.3-0.1 0.6-0.3 0.8-0.5 0.6-0.5 1.3-0.6 1.9-0.9 0.7-0.3 1.3-0.8 2-0.7 0.1 0 0.2 0 0.3-0.1 0.5-0.5 1.2-0.5 1.8-0.9 0.5-0.3 1-0.4 1.6-0.4 0.2-0.1 0.4 0 0.6-0.1 0.6-0.4 1.3-0.2 2-0.2 0.3 0 0.6 0 0.9-0.1 0.6-0.3 1.2-0.1 1.8 0.2 0.1 0 0.2 0 0.3 0q0.4-0.2 0.9-0.5c1 0.6 2.1 0.8 3.2 0.9 0.2 0.1 0.5 0.1 0.7 0.3 0.6 0.6 1.5 0.5 2.2 0.6 0.1 0 0.1-0.1 0.2-0.2q-0.4-0.5-0.7-1c0.8-0.9 1.9-1.2 3-1.4 0.8-0.1 1.7-0.1 2.6 0-0.2 0.6-0.2 1.1-0.6 1.5-0.5 0.4-0.8 0.8-0.4 1.4 0 0.1-0.1 0.3-0.1 0.5q-0.3 0.8-0.7 1.7c-1.3-0.4-2.5-1-3.8-1.2-0.5-0.1-1-0.1-1.4-0.3-0.5-0.2-0.9-0.2-1.4-0.1q-0.9 0-1.8 0.1-1 0.1-2.1 0.3c-0.2 0.1-0.4 0.2-0.5 0.1-0.5-0.1-0.9 0.1-1.3 0.3-0.6 0.3-1.1 0.5-1.6 0.9-0.4 0.4-1.3 0.3-1.5 1.1 0 0.1-0.2 0.2-0.4 0.2q-0.4 0.1-0.7 0.2c-0.2 0.3-0.2 0.7-0.5 0.8-0.7 0.6-1 1.4-1.6 2.1-0.4 0.4-0.7 0.9-0.8 1.4-0.3 0.8-0.7 1.4-1 2.1-0.3 0.6-0.3 1.4-0.5 2.2q-0.2 1.2-0.5 2.4c0 0.2 0 0.4-0.1 0.7-0.5-0.1-1-0.2-1.4-0.3-1.2-0.4-2.4-0.7-3.6-0.1-0.3 0.1-0.6 0-0.8 0-0.7-0.2-1.4 0-2.1 0.3-1 0.4-2.1 0.7-3.2 1.1 0.1-1.6 0.3-3.1 0.7-4.6z"/><path class="a" d="m158.2 171.9q-0.2 0.1-0.3 0.1c-0.1 0-0.1-0.1-0.1-0.1 0.1-0.1 0.2-0.2 0.2-0.2 0.1-0.1 0.3 0 0.5 0-0.2 0.1-0.2 0.2-0.3 0.2z"/><path class="a" d="m159.8 171.7c0 0-0.1 0.1-0.1 0.1-0.1-0.1-0.2-0.1-0.2-0.2q0.1 0 0.2-0.1 0.1 0.1 0.1 0.2z"/><path class="a" d="m82 179.1q0.1 0 0.1-0.1 0 0.1 0 0.2 0 0-0.1-0.1 0 0 0 0z"/><path class="a" d="m70.3 197.5q0-0.1 0-0.1 0.1 0 0.1 0.1-0.1 0-0.1 0z"/><path class="b" d="m1.7 246.7c0.5-0.3 0.7-0.7 1-1.2 0.4-0.6 0.8-1.3 1.6-1.4 0.4 0 0.5-0.3 0.8-0.5 0.4-0.3 0.9-0.5 1.5-0.5 0.6 0 1.2-0.1 1.9-0.1q0.1-0.1 0.2-0.2c0.6 0 1.2-0.1 1.8 0.1 0.6 0.1 1.2 0.1 1.8-0.3 0.5-0.3 1.1-0.5 1.4-1 0.2-0.2 0.4-0.4 0.6-0.5q1-0.7 1.5-1.7c0.2-0.3 0.4-0.6 0.8-0.7 0.7-0.1 0.7-0.6 0.7-1.2q0-0.4 0-0.8c0-0.5-0.1-1 0.3-1.5 0.2-0.2 0.1-0.5-0.1-0.8-0.1-0.3-0.3-0.6-0.3-0.9 0.1-1 0.8-1.8 0.8-2.7 0-0.1 0.2-0.3 0.3-0.4q0.3-0.1 0.6-0.3 0.1-0.1 0.2-0.2c0-0.2 0-0.5 0.1-0.7 0.4-0.6 0.6-1.3 0.7-2 0-0.5 0.3-1.1 0.7-1.5 0.7-0.7 1.3-1.5 1.8-2.4 0-0.1 0.2-0.3 0.3-0.4 0.5-0.1 0.7-0.5 1.1-0.8 0.4-0.3 0.9-0.7 1.5-0.9 0.5-0.2 1-0.3 1.4-0.9 0.1-0.2 0.4-0.1 0.6 0 0.6 0.3 0.6 0.8 0.6 1.3q0.1 0.2 0.2 0.3c0.9 0.5 1.6 1 2.6 1.2 0.7 0.2 1.4 0.2 2 0.7 0.1 0.1 0.4 0 0.6 0q0.2 0 0.3 0 0.6 0 1.3-0.1 0-0.1 0.1-0.2c0.1-0.1 0.2-0.2 0.3-0.1 0.1 0.1 0 0.3-0.1 0.3-0.1 0.5-0.2 0.9 0.3 1.2 0.7 0.5 1.1 1.2 1.6 1.9 0.3 0.4 0.4 1 1 1.2 0.2 0 0.4 0.1 0.5 0.2q-0.2 0.1-0.3 0 0.1 0.1 0.3 0 0.1 0.2 0.3 0.3c0.4 0.2 0.5 0.6 0.5 1q0.4 0.2 0.6 0.5 0.1 0.1 0.2 0.2c0.3 0.2 0.5 0.4 0.5 0.7q0.1 0.2 0.3 0.4 0.1 0.1 0.3 0.2c0.1 0 0.3 0 0.4 0.1 0.8 0.6 1.7 0.9 2.7 1.1q0.1 0.1 0.2 0.2c0.4 0.2 0.8 0.3 1.2 0.5 0.3 0.3 0.7 0.3 1.1 0.3q0.3 0 0.6 0c0.8-0.1 1.6 0 2.3-0.4 0.7-0.3 1.3-0.3 2-0.3q0-0.1 0-0.3c-0.1-0.4-0.2-0.9-0.5-1.2-0.7-1.1-1.1-2.2-1.2-3.5q0-0.3-0.1-0.5c-0.3-0.9-0.2-1.8-0.1-2.6 0.1-0.5 0.3-0.9 0.3-1.4q0.1-1.1 0.8-2c0.1-0.2 0.2-0.4 0.2-0.6-0.1-0.6 0.2-1.1 0.6-1.6 0.2-0.1 0.3-0.2 0.3-0.4 0.2-0.7 0.8-1.3 1.2-1.9 0.6-0.8 1.3-1.5 2.4-1.9q0.1-0.1 0.2-0.2 0.8-0.3 1.5-0.6c0.2-0.2 0.5-0.2 0.8-0.2q0-0.6 0.5-0.8c0.4-0.6 0.5-0.6 0.8-0.1-0.1 0.2-0.1 0.4-0.1 0.5-0.4 0.7-0.6 1.4-0.8 2.1-0.4 1.8-0.6 3.5-0.4 5.2q0.1 0.1 0.2 0.2 0.2 0.6 0.3 1.1c0.1 0.2 0.1 0.4 0.2 0.5 0.4 0.3 0.6 0.7 0.7 1.1 0.1 0.3 0.3 0.5 0.5 0.6 0.1 0.2 0.4 0.3 0.4 0.6 0.1 0.4 0.5 0.7 0.8 0.9 0.2 0.2 0.3 0.4 0.4 0.6q0.1 0.1 0.2 0.2 0.3 0.1 0.6 0.2c0.6 0.2 1 0.7 1.5 1 1.1 0.5 2.2 0.8 3.4 1q0.1 0.1 0.2 0.2 0.1 0 0.3 0c0.5-0.1 1-0.4 1.5-0.1 0.2 0.1 0.4-0.1 0.6-0.2q0.5-0.3 0.9-0.6c0.2-0.5 0.2-0.5 0.5-0.2 0.8 0.1 1.6-0.3 2.3-0.4q0.2-0.1 0.3-0.2 1.6-0.1 3.1-0.1c0.8-0.1 1.5-0.1 2.3 0.1q0.1-0.1 0.3-0.2c0.6 0.2 1.2 0.4 1.8 0.4 0.5 0.1 0.7 0.5 1.2 0.5 0.9 0 1.6 0.6 2.5 0.9 0.5 0.1 1.1 0.4 1.5 0.8q0.6 0.6 1.2 1c0.9 0.4 1.2 1.3 1.9 1.8 0.3 0.9 1 1.6 1.4 2.5 0.1 0.1 0.2 0.2 0.2 0.4 0.6 0.2 1.2 0.4 1.8 0.1 0.3-0.1 0.6-0.1 0.9 0q0.8 0.2 1.7 0.4c0.5 0.1 1 0.2 1.3 0.8q0.3 0.4 0.9 0.4c0.6 0 1 0.3 1.2 0.8 0.1 0.2 0.1 0.5 0.4 0.6 0.5 0.2 0.8 0.7 1.2 1.1q0.1 0.1 0.3 0.2c0.4 0.5 0.5 1.2 1.1 1.7 0.4 0.2 0 1 0.5 1.3 0.5 0.4 0.5 0.8 0.5 1.4q0.1 0.7 0.1 1.5c0 0.6 0 1.3 0 1.9-0.1 0.5-0.5 0.9-0.9 0.9-0.5-0.1-0.6-0.5-0.6-0.9q0 0 0-0.1-0.1-0.1-0.3-0.2-0.6 0-1.3 0.1c-0.2 0.3-0.6 0.2-1 0.2q-0.4 0.3-1 0.4c0 0.1 0 0.3-0.2 0.3-0.2 0-0.3-0.2-0.3-0.4-0.3 0-0.7-0.1-1 0.1-0.9 0.3-1.9 0.2-2.8 0.3-0.2 0.2-0.4 0.2-0.6 0.2q-1 0.1-2 0.1-0.3 0.4-0.5 0c-0.8 0-1.6 0-2.3 0.3-0.4 0.1-0.7 0-1 0-0.3 0.3-0.4 0.3-0.6-0.1q-0.5 0-1 0c-0.1 0.2-0.3 0.2-0.5 0.2q-0.4 0.2-0.8 0.3c-0.4 0.6-0.5 0.6-1 0.3-0.2-0.1-0.4-0.1-0.6-0.2-0.4-0.2-0.9-0.4-1.4-0.1-0.2 0.2-0.5 0.1-0.7 0q-0.4-0.1-0.9-0.1c-0.3 0.3-0.3 0.2-0.5-0.2-0.9 0.1-1.7 0.4-2.5 0.1-0.3 0.5-0.5 0.6-1.1 0.2q-0.4 0-0.7 0-0.3 0-0.6 0c-0.3 0-0.4-0.1-0.5-0.4q-0.8 0-1.5 0-0.8 0.6-1.6 0-0.5 0.1-1 0.1c-0.3 0.2-0.4 0.2-0.5-0.2-0.3-0.2-0.6-0.3-1-0.2q-1 0.3-2 0.4c-0.4 0.1-0.8 0.2-1.1-0.2q-0.2 0-0.3 0 0.1-0.2 0.2-0.1-0.1-0.1-0.2 0.1c-0.8 0.1-1.6 0.2-2.3-0.1-0.3-0.1-0.7 0-1 0.1-0.2 0.5-0.3 0.5-0.8 0.2-0.8 0-1.7 0.2-2.5-0.2q-0.3 0-0.6 0c-0.4 0-0.8 0.1-1.2-0.1-0.5-0.2-1-0.1-1.6 0 0 0.3-0.1 0.4-0.5 0.3q-0.2 0-0.5-0.1c-0.6 0.2-1.1 0.3-1.7 0.1-0.5-0.1-0.9-0.4-1.4-0.3-0.3 0.3-0.3 0.3-0.5-0.1-0.6-0.1-1.2 0.1-1.8-0.1-0.8-0.2-1.5 0-2.2 0.2q-0.8 0.3-1.6 0.2c-0.4-0.1-0.7-0.1-1 0-0.6 0.1-1.2 0.3-1.8-0.1-0.6-0.4-1.2-0.3-1.8-0.1-0.6 0.2-1.3 0.3-2 0.1q-0.6-0.2-1.2-0.1c-0.4 0-0.7-0.1-1-0.3q-0.1 0-0.2 0-0.3 0.2-0.5 0.4c-0.2 0.4-0.2 0.4-0.6 0.2-0.5-0.1-1-0.3-1.6-0.1-0.5 0.3-1.2 0.2-1.6-0.3-0.4-0.4-0.8-0.2-1.1 0.1-0.3 0.4-0.3 0.4-0.7 0.1q0 0-0.1-0.1-0.4-0.1-0.7-0.1-0.2 0-0.3 0c-0.9-0.1-1.7-0.6-2.6-0.2-0.2 0.1-0.4 0-0.5 0-0.6-0.2-1.2-0.2-1.8-0.1-1 0.4-2.1 0.2-3.1 0.3-0.5 0.1-0.9 0-1.2-0.2-0.5-0.4-1-0.3-1.5 0-0.4 0.4-0.7 0.3-1.1 0.1q-0.2-0.1-0.3-0.2c-0.6-0.4-1.2-0.3-1.9-0.1q-0.2 0.1-0.5 0.1c-0.6 0.3-1.3 0.4-2 0.2-0.2-0.1-0.5-0.1-0.7 0-0.3 0.1-0.7 0.1-1 0.1-0.2 0.1-0.4 0-0.6-0.2-0.3 0-0.6 0.1-1-0.1-0.2 0-0.4-0.1-0.6 0-0.9 0.4-1.8 0.2-2.7 0.2-0.5 0.4-0.6 0.4-0.8-0.1-0.2-0.2-0.5-0.3-0.8-0.2-0.1 0.4-0.2 0.4-0.5 0.1-0.5 0-1 0.1-1.5-0.1-0.7-0.4-0.9-1.3-0.3-1.7z"/><path class="b" d="m107 243.9q0.1 0 0.1-0.1c0.7-0.1 1.2-0.7 1.9-0.8 0.7-0.1 1.4-0.5 2.1-0.7q0.1-0.2 0.3-0.3 0-0.3 0-0.7-0.2-0.2-0.3-0.3c-0.3-0.4-0.5-0.9-0.5-1.4 0-0.3-0.1-0.5-0.3-0.7-0.7-1.2-0.6-2.6-0.6-4q0-0.1 0-0.2c0.4-0.6 0.5-1.3 0.6-2 0.1-0.8 0.5-1.5 0.8-2.2 0.3-0.6 0.9-1 1.3-1.6 0.4-0.5 1-0.9 1.5-1.4q0.2-0.1 0.3-0.2c0.6-0.4 1-0.3 1.2 0.3q0.2 0.3 0.2 0.6 0 0.6 0 1.1c0 0.4 0.1 0.9 0.5 1.2 0.2 0.2 0.4 0.6 0.4 0.9-0.1 1.1 0.6 1.8 1.3 2.5q0.1 0.1 0.3 0.2 0.2 0.3 0.5 0.5 0.1 0.1 0.3 0.3c0.1 0.2 0.3 0.4 0.4 0.6 0.1 0.8 0.6 1.2 1.5 1.3 0.5 0 0.9 0.2 1.2 0.7 0.5 0.5 1.1 0.7 1.8 0.8 0.3 0 0.6 0 0.9 0.2 0.9 0.7 1.9 0.8 3 0.8q1.1-0.1 2.2-0.1c0.4 0 0.6 0.1 0.7 0.4 0.6 0.6 0.9 0.7 1.5 0.3 0.1-0.1 0.2-0.1 0.2-0.1 0.5-0.7 1.4-0.9 2.1-1.3q0.1-0.1 0.2-0.2c0.5 0 0.9 0 1.2-0.4 0.1-0.3 0.4-0.4 0.6-0.7 0.3-0.3 0.5-0.5 0.9-0.6 0.5-0.1 0.7-0.4 0.8-0.9q0.1-0.6 0.3-1.2c0.3-1.1 0.5-2.1 0.4-3.2 0-0.5-0.2-1-0.8-1.2-0.4-0.1-0.7-0.4-0.9-0.9-0.1-0.3-0.4-0.5-0.7-0.5q-0.1-0.1-0.3-0.2-0.1 0-0.2 0-0.2-0.1-0.3-0.2c-0.4 0-0.8-0.3-1.3-0.3q-0.1-0.1-0.2-0.2-0.7-0.6-1.4-1.2c-0.4-0.3-0.7-0.6-0.7-1-0.1-0.5-0.2-0.8-0.6-1-0.8-0.5-0.9-1.2-0.8-2 0.2-0.9 0.4-1.9 0.4-2.8 0-0.4 0.1-0.7 0.5-1 0.3-0.1 0.4-0.4 0.6-0.6 0.3-1 1.1-1.4 1.9-2 0.3-0.3 0.7-0.6 1.2-0.5q0.1-0.1 0.3-0.1c0.1-0.1 0.3-0.2 0.4 0 0.1 0.2 0 0.3-0.2 0.4-0.1 0.1-0.3 0.1-0.4 0.2-0.4 0.2-0.3 0.6-0.2 0.9 0 0.3 0.3 0.6 0.1 0.9-0.3 0.7 0 1.6-0.4 2.3-0.3 0.6-0.2 0.9 0.3 1.2 0.5 0.3 0.6 0.7 0.6 1.2q0 0.5 0.3 0.8c0.4 0.4 0.6 0.9 0.8 1.4 0.2 0.5 0.5 0.8 1.1 1 0.5 0.3 1.1 0.6 1.3 1.3 0.1 0.1 0.2 0.2 0.4 0.3 0.7 0.4 1.3 1 2.2 1 0.3 0.1 0.5 0.2 0.7 0.3q0.2 0.1 0.3 0.2 0.4 0 0.8 0 0.2-0.4 0.5 0c0.7 0 1.4-0.1 2.1 0.2 0.4 0.1 0.9 0 1.2-0.4 0.1-0.2 0.3-0.4 0.6-0.5 0.5-0.2 1-0.5 1.3-0.9 0.4-0.3 0.7-0.4 1.2-0.4q0.1-0.1 0.2-0.2 0.4-0.1 0.8-0.1 0.1-0.1 0.2-0.2 0.7-0.1 1.3-0.1 0.1-0.1 0.3-0.2c0.5 0 1 0.2 1.5 0.2 0.7-0.1 1.3-0.1 2 0.3 0.2 0.2 0.5 0.1 0.8 0.1q0.2 0.1 0.3 0.2c0.2 0.1 0.4 0 0.5 0.1q1.7 0.8 3.5 1.6c0.2 0.1 0.4 0.2 0.4 0.5 0.1 0.3 0.3 0.4 0.5 0.6 0.8 0.6 1.6 1.2 1.8 2.3 0 0.2 0.1 0.3 0.1 0.4 0.4 0.6 0.4 1.3 0.3 2-0.1 0.3-0.2 0.5-0.2 0.8q0.2 0.1 0.3 0.3 0.3 0 0.5 0 0.1 0.1 0.3 0.2c0.5 0 1 0.3 1.5 0.2 0.9-0.2 1.7 0.1 2.6 0.2q0.1 0.1 0.2 0.2c0.7 0 1.4 0 1.6 0.8 0.2 0 0.4 0 0.5 0.2q0.4 0.1 0.8 0.3 0.1 0.1 0.3 0.1c0.5 0.4 1 0.7 1.5 1.1 0.5 0.3 0.6 1 1.1 1.5 0.3 0.4 0.2 0.9 0.5 1.2 0.4 0.3 0.3 0.7 0.3 1.1 0.4 0.2 0.3 0.5 0.3 0.8 0.3 0.3 0.6 0.2 0.9 0.1 0.7-0.3 1.3-0.5 1.9-0.7 0.7-0.2 1.4-0.5 1.8-1.1 0.1-0.1 0.2-0.1 0.3-0.1q0.1-0.1 0.2-0.2c1-0.6 1.7-1.5 2.8-1.9q0.1-0.1 0.2-0.2c0.4-0.4 0.3-1 0.8-1.2 0.7-0.2 1-0.9 1.5-1.4 0.5-0.7 0.7-1.5 1.4-1.9q0.1-0.2 0.2-0.3c0.1-0.2 0-0.6 0.1-0.7 0.4-0.6 0.5-1.3 1.1-1.7 0.4-0.3 0.7-0.7 0.9-1.2 0.2-0.6 0.6-1.2 1-1.7 0.1-0.2 0.3-0.1 0.4 0.1q0.2 0.1 0.3 0.2-0.2 0-0.2-0.1 0 0.1 0.2 0.1c0.5 0 1.1 0.1 1.6 0 0.7-0.2 1.3-0.1 2 0.2q0.1-0.2 0.3-0.3 0.2 0 0.4 0 0.2 0.1 0.3 0.2c0.7 0.1 1.4 0.4 2.1 0.3q0.1 0.1 0.2 0.2 0.7 0.1 1.3 0.2 0.1 0.1 0.3 0.2c0.3 0.2 0.6 0.3 1 0.3q0.2 0.1 0.3 0.2c0.5 0.3 1 0.4 1.3 0.9 0.2 0.2 0.4 0.3 0.7 0.4 0.5 0.2 0.8 0.6 1.1 1q0.2 0.1 0.3 0.2c0.4-0.1 0.7 0.3 1 0.4 0.5 0.1 0.7 0.4 1 0.7 0.3 0.2 0.8 0.3 0.9 0.8 0 0.1 0.2 0.2 0.3 0.3 0.5 0.1 0.7 0.6 1 0.9 0.3 0.5 0.8 0.9 1.1 1.3 0.5 0.6 1.1 1.2 1.4 1.9 0.2 0.5 0.4 1 0.6 1.5 0.2 0.5 0.5 1 0.7 1.5q0.2 0.6 0.4 1.2c0.5-0.2 1-0.4 1.4-0.5q0.1-0.2 0.2-0.3c0.3-0.5 0.5-1.1 1.2-1.1 0.2 0 0.4-0.1 0.4-0.2 0.5-0.6 1.1-0.8 1.7-1.1q0.1-0.1 0.3-0.2 0.3-0.2 0.7-0.3 0.1-0.2 0.3-0.3c0.1-0.1 0.3-0.2 0.4-0.2 0.8 0 1.5-0.4 2.2-0.4 0.4 0 0.6-0.1 0.9-0.3q0.2-0.2 0.3 0 1 0 2 0 0.3-0.4 0.5-0.1c1 0 2-0.1 2.9 0.2q0.1 0.1 0.2 0.2c0.6 0.1 1.3-0.1 1.8 0.2 0.4 0.2 0.8 0.2 1.2 0.4 1.3 0.4 2.7 0.8 3.7 1.9 0.1 0.1 0.3 0.1 0.4 0.2q0.1 0.1 0.2 0.2c0.5 0.7 0.9 1.4 1.5 1.9 0.2 0.1 0.3 0.3 0.4 0.5q0.1 0.8 0.6 1.3c0.2 0.3 0.2 0.6 0.2 0.9q0.2 0.1 0.3 0.2-0.1 0-0.2-0.1 0.1 0.1 0.2 0.1 0.1 0 0.2 0.1c0.2 0 0.3 0.2 0.3 0.3q-0.1 0.3-0.4 0.4c-0.3 0-0.7 0-1 0.3-0.3 0.3-0.6 0.3-0.9 0-0.2-0.2-0.4-0.2-0.6-0.1-0.5 0.2-1 0.2-1.6 0-0.3-0.1-0.6-0.1-0.9 0 0 0.2 0 0.3-0.2 0.4-0.2 0-0.3-0.2-0.3-0.4-1.6 0.4-3.2 0.5-4.7-0.2q-0.1 0-0.2 0c-0.2 0.2-0.4 0.3-0.8 0.3q-1 0.1-2 0.1c-0.2 0.5-0.3 0.6-0.7 0.4-0.1-0.1-0.2-0.2-0.3-0.3q-0.6 0-1.3-0.1-0.1-0.1-0.2-0.1 0.1 0 0.2 0.1c-0.2 0.1-0.4 0-0.5-0.2q-1 0.1-1.9 0.2c-0.6 0-1.2 0.1-1.8 0.4-0.4 0.1-0.8 0.1-1.2 0.1-0.2 0-0.5 0-0.7-0.2-0.5 0-1-0.1-1.4 0.1-0.4 0.2-0.8 0.2-1.1-0.1-0.4-0.4-0.9-0.5-1.4-0.5q-0.8 0.1-1.5 0.2c-0.3 0.4-0.3 0.4-0.7 0.1q0 0-0.1-0.1-0.4-0.1-0.8-0.1-0.4 0-0.8 0c-0.3 0-0.7 0.1-1 0-0.6-0.2-1.2-0.1-1.8-0.1q-0.1-0.1-0.2-0.2-0.9 0.1-1.8 0.3c0 0.2-0.1 0.3-0.3 0.3-0.2 0.1-0.2-0.1-0.3-0.3q-0.7-0.1-1.5-0.2c0 0.2 0 0.3-0.2 0.4-0.2 0-0.3-0.2-0.3-0.4-0.4 0-0.8-0.5-1.2 0.1-0.3 0.5-0.8 0.5-1.3 0.3-0.9-0.4-1.9-0.4-2.9-0.2 0 0.1 0 0.3-0.2 0.3-0.2 0-0.3-0.1-0.3-0.3q-0.2 0-0.5-0.1c-0.2 0-0.4 0-0.5-0.2-0.5 0-1 0-1.5-0.1-0.6-0.2-1.1 0.3-1.6 0.2-0.3 0-0.5 0-0.8 0-0.5-0.1-1-0.2-1.5-0.3-0.3-0.1-0.5 0-0.8 0.2q-0.1 0.1-0.3 0.2-0.6 0-1.2 0 0 0 0 0-0.2 0-0.3 0-0.5 0-1 0.1-0.3 0.4-0.5 0c-0.4 0-0.7-0.2-0.9-0.4-0.3-0.2-0.7 0.3-1 0.1q-0.3-0.1-0.6-0.3-0.3-0.1-0.6-0.1c-0.1 0.5-0.2 0.5-0.5 0.3-0.9 0.1-1.7-0.1-2.6 0.1-0.1 0.5-0.2 0.5-0.5 0.2q-1.1-0.6-2.3-0.6-0.1 0.4-0.5 0.4-0.3 0-0.5 0.1c-0.6 0-1.2 0.1-1.8-0.2-0.4-0.3-0.8-0.2-1.2 0.1-0.2 0.1-0.4 0.1-0.6 0.2q-0.1-0.1-0.3-0.2-0.4-0.1-0.7-0.1-0.3 0-0.6 0.1-0.6-0.3-1.3-0.2c-0.5 0-0.9-0.1-1.2-0.3q-0.3 0-0.6 0-0.6 0.5-1.3 0.2c-0.8-0.3-1.7-0.4-2.5-0.3q-0.3 0-0.5 0-0.2 0-0.3 0c-0.6 0.4-1.4 0.4-2.1 0.2-0.4-0.2-1-0.2-1.4-0.4-0.6-0.2-1 0.1-1.3 0.4-0.2 0.5-0.2 0.5-0.6 0.2-0.1 0-0.3 0-0.5-0.1-0.5-0.2-0.9-0.1-1.2 0.2-0.1 0.2-0.1 0.4-0.4 0.5-0.3 0-0.4-0.2-0.4-0.5-1-0.1-1.9 0.1-2.9 0.1-0.4 0.3-0.5 0.3-0.7-0.2-0.6 0-1.1-0.2-1.6 0.2-0.7 0.5-1.3 0.4-2 0.1q-0.1-0.1-0.3-0.2c-0.4 0-0.8-0.1-1.2 0.1-0.5 0.2-0.9 0.2-1.2-0.2-0.1-0.1-0.3-0.1-0.4-0.1q-0.1 0-0.3 0c-0.7 0-1.5 0.2-2.3-0.2q-0.1-0.2-0.2 0-0.3 0-0.5 0c-0.4 0.3-0.4 0.3-0.6-0.2-0.5-0.1-1 0.1-1.4 0.5-0.4 0.4-0.8 0.4-1.3 0.3-0.3 0-0.6-0.1-0.8-0.2-0.4 0.3-0.4 0.3-0.8 0q-0.1 0-0.3 0.1c-0.9 0.3-1.8 0.4-2.6-0.1-0.2-0.1-0.4-0.1-0.7-0.1-0.4 0-0.8 0-1.2-0.1q-0.7-0.2-1.4 0.1c-0.5 0.2-1 0.1-1.5 0-0.3-0.1-0.7-0.1-1.1-0.3-0.3-0.1-0.5 0-0.8 0.2-0.6 0.4-1.3 0.4-1.9 0-0.2-0.1-0.4-0.1-0.6-0.2q-0.1-0.1-0.3-0.2c-0.1 0-0.3 0-0.5 0-1.4 0.4-2.8 0.5-4.1-0.2q-0.3-0.2-0.5 0-0.2 0.3-0.5 0.4 0 0.1 0 0.2c0 0.4 0.2 0.8-0.2 1.1q-0.1 0.2-0.3 0-0.1-0.1-0.3-0.2c-0.8-0.4-1.8-0.5-2.6-1.2-0.2-0.2-0.6-0.1-0.9 0-0.4 0.3-0.7 0.5-1.1 0.7q-0.1 0.2-0.2 0.1c-0.3-0.1-0.7-0.1-1 0.1-0.3 0.2-0.7 0.1-1.1 0.1q-0.1 0-0.2 0c-0.8 0.1-1.6 0.2-2.4-0.3-0.3-0.2-0.6-0.1-1-0.1-0.3 0.3-0.3 0.3-0.5-0.1-0.5-0.1-1-0.3-1.5-0.2-0.6 0-0.8 0.7-1.3 0.9q-0.1 0-0.2 0.1-0.2 0.2-0.3 0c-0.4-0.9-0.5-1.7 0.1-2.5 0.7-0.8 1.5-1.4 2-2.3z"/><path class="b" d="m191 217.6c-0.1-0.4-0.1-0.9-0.3-1.3-0.4-0.8-0.7-1.6-1-2.5 0-0.1-0.2-0.3-0.3-0.4-0.9-0.2-1.2-0.9-1.4-1.6-0.1-0.3-0.3-0.4-0.5-0.5-0.6-0.1-1.1-0.1-1.6-0.5q-0.4-0.2 0-0.5 0.2-0.2 0.5-0.2c0.9-0.1 1.7-0.1 2.6 0.1 0.2 0 0.4 0.1 0.5 0.3q0.4 0 0.8 0 0.1 0.1 0.2 0.2c0.2 0.1 0.3 0.2 0.5 0.2 0.5 0.1 1 0 1.3 0.6 0.1 0.1 0.4 0.1 0.6 0.2 0.3 0.1 0.6 0.2 0.8 0.5q0.1 0 0.2 0.1 0.4 0.2 0.8 0.3 0.1 0.2 0.3 0.3 0.2 0.2 0.5 0.5 0.1 0.1 0.3 0.2 0 0 0.1 0c0.6 0.6 1 1.4 1.7 2 0 0.6 0.4 1.1 0.9 1.4 0.1 0.1 0.3 0.3 0.3 0.4 0.3 0.9 0.7 1.8 0.7 2.8 0.1 0.9 0.4 1.7 0.5 2.6 0 0.1 0.1 0.1 0.1 0.2q0.2 0 0.3 0c0.5-0.2 1.1-0.4 1.7-0.3q1 0 1.9-0.3c0.2 0 0.5-0.1 0.7 0.2 0.2 0 0.4 0 0.5 0.1 0.5 0.2 0.9 0.1 1.4 0.1 0.4 0.1 0.7 0.6 1.2 0.5q0.2 0.1 0.3 0.2 1 0.5 2.1 1 0.1 0.1 0.3 0.2c0.1 0.2 0.2 0.3 0.3 0.4 0.9 0.3 1.5 1.1 2.1 1.8 0.5 0.4 0.8 1 1.1 1.5q0.2 0.4 0.2 0.8 0 0.1-0.2 0.1-0.1 0-0.2-0.1-0.1-0.1-0.1-0.2-0.3 0-0.6 0c0 0.1-0.1 0.2-0.1 0.2-0.1 0.5-0.5 0.7-1 0.6-0.2 0-0.5 0-0.7-0.1-0.4-0.4-0.8-0.4-1.3-0.2-0.4 0.3-0.9 0.2-1.3-0.2-0.5-0.4-1-0.9-1.3-1.5-0.3-0.4-0.6-0.7-1.1-0.6-0.4 0-0.6-0.3-0.8-0.6-0.2-0.3-0.3-0.6-0.4-0.9-0.2 0-0.4 0-0.5-0.2q-0.2 0-0.3-0.1-0.1-0.1-0.2-0.1 0 0 0 0 0 0 0 0c-0.7-0.1-1.3-0.1-1.8-0.6q-0.2-0.1-0.3-0.2c-1-0.5-1-0.5-2.1-0.2-0.2 0.1-0.4 0.2-0.6 0.2q-0.2 0.1-0.5 0.1c-0.3 0-0.4-0.2-0.4-0.5-0.4 0-0.8 0.1-1.1-0.2-0.4-0.1-0.8 0.2-1.2 0.3 0 0.2-0.1 0.4-0.3 0.4-0.2 0-0.2-0.2-0.3-0.4-0.8-0.1-1.6-0.3-2.4-0.2-0.4 0-0.7-0.2-0.8-0.6q-0.1-0.4-0.1-0.8-0.1-0.7-0.1-1.4c-0.2-0.1-0.2-0.3-0.2-0.6 0-0.8-0.1-1.6-0.6-2.3-0.2-0.2-0.3-0.4-0.3-0.7z"/><path class="b" d="m66.4 206.9c0-0.4 0.2-0.6 0.5-0.8q0.2-0.1 0.3-0.2c0.8-0.1 0.8-0.1 1-0.8 0.1-0.2 0.2-0.4 0.3-0.6 0.3-0.6 0.9-0.7 1.3-1.1 0.5-0.2 0.9-0.3 1.4-0.1q0.6 0.2 1.3 0.3 0.1-0.1 0.3-0.2c0-0.6-0.2-1.2-0.6-1.6-0.4-0.4-0.6-0.9-0.6-1.5q-0.1-0.1-0.2-0.2c-0.5-1.4-0.3-2.9-0.3-4.4 0.3-0.7 0.1-1.4-0.2-2 0-0.2 0.1-0.4 0.3-0.5q0-0.5 0-1 0.1-0.2 0.2-0.3c0.3-0.1 0.5-0.2 0.6-0.4 0.2-0.5 0.4-0.9 0.6-1.3 0.1-0.4 0.4-0.5 0.8-0.5q0.1-0.1 0.2-0.2c0.4-0.3 0.5-0.8 0.8-1.1 0.1-0.1 0.2-0.1 0.2-0.1 0.2 0 0.2 0.2 0.2 0.3-0.2 0.5-0.4 1-0.6 1.5-0.4 0.7-0.6 1.4-0.5 2.2 0.2 1 0.2 2.1 0.8 2.9 0 0.1 0.1 0.3 0.1 0.4-0.1 0.5 0.3 0.8 0.5 1.1q0.8 1 1.9 1.7 0.1 0.1 0.2 0.2 0.7 0.1 1.3 0.2 0.2-0.2 0.3 0 0.1 0 0.2 0.1 0.2 0.1 0.3 0.2 1-0.1 2.1-0.1 0.1-0.1 0.2-0.2 0.3 0 0.5-0.1 0.2-0.2 0.4-0.2c0.1 0 0.2 0.1 0.3 0.1 0 0.2 0 0.3-0.2 0.3q-0.1 0.1-0.2 0.1c-0.3 0.4-0.6 1-1.3 0.8-0.2 0.3-0.5 0.3-0.8 0.3-0.3 0.4-0.6 0.7-1.2 0.8-0.7 0.3-1.2 0.7-1.6 1.4-0.4 0.7-0.6 1.5-1 2.2-0.6 1.1-0.8 1.3-2.1 1.1-0.1 0-0.3-0.1-0.4-0.1-0.2 0-0.4-0.1-0.5 0-0.7 0.3-1.4 0.5-1.9 1.1-0.5 0.7-0.8 1.4-1.3 2.1-0.3 0.5-0.5 1-0.2 1.5 0.1 0.3 0.1 0.6 0 0.9 0 0.3-0.3 0.6-0.6 0.5q-0.7-0.2-1.5-0.2c-0.2 0-0.4-0.1-0.6-0.2q-1-1-0.9-2.5 0-0.2 0-0.5 0-0.7-0.1-1.3z"/><path class="b" d="m179.4 206.8q-0.4 0.3-0.8 0.6c-0.1 0.1-0.3 0-0.4-0.1q-0.1-0.1-0.1-0.3c-0.4-1.2-0.8-2.4-1.9-3.2q-0.1-0.1-0.2-0.2c-0.1-0.7-0.7-1.2-1.1-1.7q-0.1-0.1-0.3-0.2c-0.2-0.1-0.5-0.2-0.8-0.2-0.2-0.1-0.4-0.1-0.5-0.3-0.4 0-0.8 0-1-0.4q-0.3-0.1-0.5-0.1c-0.3 0-0.6 0.1-0.8-0.2q-0.4-0.1-0.8-0.2c-0.3 0-0.6 0-0.8-0.3q-0.3 0-0.7 0c-0.3 0.1-0.6 0.1-0.8-0.2-0.4-0.2-0.2-0.5 0.1-0.7 0.7-0.2 0.9-0.8 1.1-1.4 0-0.1 0-0.2 0-0.2 0.6-0.9 0.8-2 1.2-3 0.2-0.2 0.3-0.5 0.2-0.8 0-0.8 0.2-1.5 0.4-2.1 0.2-0.6 0.4-1.2 0.1-1.8-0.1-0.2 0-0.5 0.1-0.7 0.1-0.5 0.2-1.1-0.1-1.5-0.4-0.6-0.3-1.3-0.8-1.8-0.1-0.1-0.2-0.4-0.2-0.5 0.1-0.6-0.2-1.2-0.3-1.7q0.3-0.4 0.5-0.1c0.7 0.2 1.1 0.7 1.6 1.1q0.1 0.1 0.3 0.2c0.3 0.2 0.4 0.7 0.9 0.8 0.1 0.1 0.2 0.1 0.2 0.2 0.4 0.9 1.1 1.6 1.5 2.5 0.1 0.4 0.3 0.7 0.5 1 0.6 1.2 0.8 2.5 0.9 3.8 0.2 1.5 0.1 2.8-0.3 4.2-0.1 0.7-0.2 1.4-0.2 2-0.1 0.7 0.1 0.9 0.8 1 0.8 0.2 0.8 0.2 1.1 1q0.1 0.2 0.2 0.3c0 0.1 0 0.3 0.1 0.3 0.4 0.4 0.7 0.8 0.8 1.4 0.1 0.2 0.3 0.5 0.4 0.7 0.6 0.7 0.6 1.5 0.6 2.4 0 0.2 0 0.3-0.2 0.4z"/><path class="b" d="m72.6 213.4c0.1 0.4 0.5 0.8 0.5 1.3q-0.2 0.4-0.5 0c-0.4 0-0.7-0.1-0.9-0.5-0.1-0.4-0.2-0.7-0.2-1-0.2-0.1-0.1-0.2 0-0.3 0.5 0 0.9 0.1 1.1 0.5z"/><path class="b" d="m85.7 198.1q0.5 0 1 0 0 0 0 0 0.2-0.1 0.3-0.3 0.3 0.3 0.5 0.5-0.4 0-0.8 0.1 0-0.1 0-0.1 0 0 0 0.1c-0.3 0.1-0.7 0.4-1.1 0-0.3 0-0.6 0.1-0.9 0.3q-0.1-0.2-0.3-0.3c0.4-0.4 0.9-0.2 1.3-0.3z"/><path class="b" d="m126.5 236.6c0 0.1 0 0.3-0.1 0.3q-0.3 0.1-0.4-0.1c-0.1-0.2 0-0.3 0.2-0.3 0.1 0 0.2 0.1 0.3 0.1z"/><path class="b" d="m131.6 236.9c0 0.1 0 0.2 0.1 0.2-0.1 0.1-0.2 0.1-0.3 0.1 0 0 0-0.1-0.1-0.2 0.1 0 0.2-0.1 0.3-0.1z"/><path class="b" d="m137.2 215.6c0 0-0.1 0.1-0.1 0.2-0.1 0-0.1-0.1-0.2-0.1 0-0.1 0-0.2 0.1-0.2 0 0 0.1 0 0.2 0.1z"/><path class="b" d="m123.7 172.7q-0.6 0.1-1.3 0.3-0.1 0.1-0.2 0.2c-0.2 0.1-0.3 0.2-0.5 0.2-0.5 0-0.9 0.4-1.3 0.7-0.8 0.8-1.5 1.7-2.2 2.7-0.4 0.6-0.8 1.3-0.7 2.2q-0.1 0.1-0.3 0.2c-0.2 0-0.5 0.1-0.6 0-0.5-0.6-1.3-0.6-1.9-0.9-0.3 0-0.4 0-0.6-0.2-1-0.1-2.1 0-3.1 0q-0.9 0.1-1.7 0.4-0.2 0.1-0.3 0.2c-0.6 0.2-1 0.8-1.5 1.1-0.2 0.1-0.3 0.3-0.2 0.4 0.1 0.7-0.3 0.9-0.8 1.2-0.4 0.5-0.5 0.5-0.8 0q-0.1 0-0.2 0-0.1-0.1-0.3-0.2-0.1-0.1-0.2-0.1-0.2-0.1-0.3-0.2c-0.7 0-1.3 0-2 0.2-0.3 0.2-0.5 0-0.8-0.1-0.2-0.2 0-0.4-0.1-0.6q-0.1-0.3-0.2-0.7-0.1-0.2-0.1-0.3 0 0.1 0.1 0.3c-0.4 0-0.8 0-0.8-0.5-0.2-0.4-0.7-0.5-0.9-0.8-0.6-0.9-1.5-1.2-2.5-1.2q-0.1 0-0.2 0.1c-0.7 0-0.7 0-0.8-0.6q0.1-0.1 0.2-0.2 0 0 0 0c0-0.6 0.1-1.1 0.7-1.4 0.2 0 0.3-0.2 0.4-0.4q0.6-0.7 1.4-1.1 0.1-0.1 0.3-0.2c0.6-0.3 1.2-0.4 1.9-0.4 0.6 0.1 1.1-0.2 1.6-0.3q0.1-0.1 0.3-0.2 0-0.1 0-0.2c-0.2-0.6-0.2-0.8 0.1-1.8q0-0.1-0.1-0.3c-0.2-1.5-0.5-2.9-0.5-4.3 0-0.4-0.1-0.8-0.2-1.1-0.2-1-0.2-1.9 0.2-2.8 0.5-1 0.5-2.3 1.3-3.1q0-0.1 0-0.2c0-0.6 0.4-0.9 0.8-1.2 0.4-0.2 0.7-0.5 1-0.8q0.1-0.1 0.2-0.2c0.3-0.2 0.6-0.4 0.9-0.6 0.2-0.1 0.4-0.3 0.7-0.3 0.6 0 1-0.3 1.4-0.6 0.3-0.2 0.7-0.4 1-0.5 0 0 0.1 0.1 0.1 0.1 0 0.4-0.3 0.7-0.6 0.9-0.5 0.3-0.8 0.7-1.1 1.1-0.4 0.7-0.8 1.4-1.2 2.1-0.4 0.6-0.5 1.3-0.9 1.9-0.1 0.1-0.1 0.3-0.1 0.4-0.3 1-0.2 2.1-0.2 3.2q0.4 0.2 0 0.5c0 0.6 0.1 1.1 0.2 1.7 0.3 0.9 0.4 1.8 0.5 2.6q0.1 0.1 0.2 0.3 0.1 0.2 0.1 0.5 0.1 0.1 0.2 0.2 0 0.7 0.5 1.1c0.2 0.2 0.5 0.3 0.5 0.6 0.2 0.5 0.7 0.8 1.1 1.2q1 0.7 2 1.5c0.1 0.2 0.3 0.3 0.4 0.5 0.1 0.3 0.4 0.4 0.7 0.4 0.5-0.1 0.6 0.3 0.6 0.7 0.3 0 0.6 0 0.8 0.3 0.3 0 0.6 0.1 0.8 0.3q0.4 0.5 1 0.4 0.2 0 0.5-0.1c0-0.3 0-0.7 0-1.1-0.1-1.5 0-3 0.5-4.4q0-0.2 0.1-0.4c0.3-0.8 0.5-1.7 1.1-2.4 0.4-0.4 0.6-1.1 1.1-1.5 0.1 0 0.1-0.1 0.1-0.2 0.1-0.6 0.5-0.9 0.9-1.2q0.3-0.3 0.5-0.7 0.3-0.7 1-1.1c0.6-0.2 1.1-0.6 1.5-1 0.9-0.8 1.9-1.5 3.1-1.9 0-0.1 0.1-0.1 0.2-0.2 0.4-0.7 1.2-0.8 1.8-1 1-0.4 2-0.9 2.8-1.5 0.3-0.2 0.6-0.3 1-0.3 0.3-0.4 0.8-0.3 1.3-0.5 0.1-0.1 0.2 0 0.2 0.1 0 0.1-0.1 0.3-0.2 0.3-0.1 0.1-0.3 0.1-0.5 0.1-0.5 0.6-1 1.2-1.7 1.5q-0.3 0.2-0.4 0.6-0.1 0.1-0.2 0.3-0.3 0.1-0.5 0.4c-0.5 1.1-1 2.2-1.3 3.4-0.2 0.7-0.2 1.3 0 2 0.1 0.4 0.1 0.9 0 1.3-0.1 0.5-0.2 1.1 0.1 1.5 0.7 0.6 0.6 1.6 1.2 2.2 0 0.7 0.5 1 1.1 1.2q0.1 0.1 0.3 0.2c0.5 0 1 0.1 1.2 0.7q0 0.1 0.1 0.1c0.2 0 0.3 0 0.5 0.2 0.2 0.1 0.5 0.3 0.8 0.2q0.2-0.3 0.5 0c0.3 0 0.6 0.1 0.8-0.1 0.4-0.4 0.9-0.4 1.3-0.4 0.8-0.1 1.5 0.1 2.3 0.2 0.9 0.1 1.6 0.7 2.5 1 0.4 0.1 0.5 0.5 0.7 0.7 0 0.1 0.1 0.1 0.2 0.2 0.7 0.3 0.9 1.1 1.6 1.4 0.1 0 0.1 0.2 0.2 0.3q0.5 1.4 1.6 2.3c0.3 0 0.6 0 0.7 0.2 0.5 0.4 0.9 0.8 1.5 1 0.5 0.3 1.2 0.5 1.3 1.2 0.1 0.2 0.4 0.3 0.5 0.4 1.1 0.9 2.1 1.9 2.3 3.4q0.1 0.4 0.3 0.7c0.3 0.5 0.5 1.2 0.5 1.8 0.1 1 0.5 1.9 0.4 2.9 0 0.1 0.2 0.2 0.2 0.3 0.4 0 0.8-0.2 1.1 0.2q0.4 0 0.8 0c0.2 0 0.5-0.1 0.7 0.2q0.6 0.1 1.1 0.2 0.1 0.1 0.2 0.2 0.6 0.2 1.1 0.3 0.1 0.1 0.2 0.2c0.2 0.1 0.5 0.1 0.6 0.3q2.4 1.6 3.6 4.2c0.2 0.4 0.5 0.9 0.6 1.4q0.2 1.3 0.2 2.7c0 1.1-0.5 2.1-0.6 3.1 0 0.2-0.3 0.4-0.5 0.4-0.3 0-0.4-0.2-0.4-0.4-0.1-0.7 0-1.5-0.3-2.1-0.1-0.1-0.1-0.2 0-0.3 0-0.8-0.1-1.4-0.4-1.9q-0.2-0.3-0.2-0.6c-0.3-0.8-1.2-2.2-1.8-2.5-0.4-0.2-0.8-0.3-1-0.6-0.8-0.8-1.9-1.2-2.9-1.5q-0.6-0.1-1.1-0.2-0.2-0.1-0.3-0.2-0.7 0-1.3 0-0.1-0.1-0.3-0.2-0.9 0-1.8 0c-0.2 0.3-0.5 0.2-0.8 0.2-0.1 0.1-0.3 0.3-0.5 0.3-0.6 0-1.1 0.1-1.5 0.7-0.2 0.2-0.6 0.1-1 0.2 0 0.2 0 0.4-0.2 0.5-0.1 0.2-0.1 0.3-0.2 0.5-0.1 0.1-0.2 0.3-0.4 0.1-0.2-0.1 0-0.3 0.1-0.5q0.1 0 0.2-0.1c0-0.3 0.1-0.5 0.5-0.6q0 0 0 0.1 0-0.1 0-0.1c0-0.2-0.1-0.5 0.1-0.6 0.7-0.4 1-1.2 1.7-1.5 0.7-0.3 0.8-0.9 0.6-1.5-0.1-0.4-0.2-0.8-0.2-1.3-0.2-1-0.2-2.2-1-3.1-0.1-0.1-0.1-0.2-0.2-0.3-0.3-1.2-1.5-1.7-2.1-2.7-0.1-0.1-0.3-0.2-0.5-0.3-0.3-0.1-0.6-0.2-0.8-0.4-0.5-0.5-1.2-0.7-1.8-0.9-0.8-0.2-1.5-0.5-2.4-0.5-0.2 0-0.5-0.2-0.7-0.2-0.1 0.1-0.2 0.2-0.4 0.2-0.2-0.1-0.4-0.3-0.6-0.4q-0.3 0-0.5 0-0.2-0.1-0.3-0.2-0.7 0-1.3 0c-0.4 0.5-0.4 0.5-0.8 0.2q-0.3 0-0.7 0-0.2 0-0.3 0.1-0.1 0-0.2 0c-0.2 0.6-0.3 0.6-0.8 0.2-0.3 0-0.5 0-0.7 0.2-0.4 0.4-0.9 0.4-1.3 0.5q-0.2 0.1-0.3 0.2c-1.1 0.5-1.8 0.8-2.2 1.5-0.4 0.6-0.7 1.3-1.4 1.6-0.1 0-0.1 0.2-0.2 0.3-0.1 0.2-0.1 0.5-0.3 0.6-0.6 0.6-0.9 1.4-1.4 2.1q-0.1 0.1-0.2 0.2c0 0.2-0.1 0.4-0.2 0.6q-0.2 0.2-0.3 0c-0.2-0.1-0.3-0.3-0.2-0.5 0.3-0.4 0.5-0.8 0.4-1.3 0-0.3 0.2-0.5 0.3-0.8q0.7-1.2 1.5-2.3c0.3-0.4 0.4-0.9 0.8-1.1 0.2-0.2 0.3-0.3 0.4-0.5q0.3-0.6 0.9-1c0.3-0.2 0.6-0.5 0.3-1.1-0.1-0.3 0-0.7-0.1-1.1q0.1-0.1 0.2-0.2c0.1-1.6 0.4-3.1 1.6-4.2 0.6-0.5 0.7-1.2 0.6-1.9 0-0.5-0.3-0.7-0.6-0.8-0.3-0.2-0.7 0-0.9-0.3-0.6-0.6-1.6-0.6-2.3-1-0.1 0-0.2 0-0.4 0-0.2 0.4-0.6 0.3-1 0.3-0.8 0.1-1.5 0.4-2.3 0.3q-0.2 0.4-0.5 0.1z"/><path class="b" d="m83.9 198.7c-0.1 0.2-0.2 0.3-0.4 0.1 0-0.1 0-0.3 0.2-0.3q0.1 0 0.2-0.1 0.3 0 0.5 0 0.2 0.1 0.3 0.3-0.4 0-0.8 0z"/><path class="b" d="m110.1 154.3q0.2-0.4 0.5 0c-0.1 0.2-0.3 0.3-0.5 0.3 0 0-0.1-0.1-0.1-0.1q0.1-0.1 0.1-0.2z"/><path class="b" d="m88 197.5c0-0.2-0.1-0.4-0.3-0.6-0.3-0.3-0.5-0.7-0.5-1 0-0.8-0.5-1.6-0.1-2.4 0.1-0.3 0.1-0.7-0.1-1-0.3-0.6-0.1-1.1 0-1.6q0.1-0.1 0.2-0.3c0-0.6 0.2-1.2 0.3-1.8q0.1-0.5 0.4-0.8c0.3-0.2 0.6-0.5 0.7-0.9 0-0.2 0.2-0.4 0.5-0.5 0.5-0.2 0.8-0.4 1-0.9 0.1-0.2 0.4-0.3 0.6-0.4 0.9-0.3 1.8-0.8 2.8-0.8q0.1-0.1 0.3-0.2 0.1 0 0.2-0.1c0.2-0.2 0.3-0.2 0.6-0.2 0.8 0.1 1.7-0.1 2.5-0.3q0.1 0 0.1 0 0.1 0.2-0.1 0.2c0 0 0 0.1 0 0.1q-0.1 0.1-0.2 0.2-0.3 0.2-0.6 0.3c-0.6 0.3-1 0.7-1.4 1.3-0.6 0.8-0.8 1.8-1.1 2.7-0.2 0.8-0.2 1.4 0 2.2 0.2 0.9 0.4 1.9 0.5 2.8q0.1 0.1 0.3 0.2c0.1 0.1 0.3 0.1 0.4 0.2 0.3 0.4 0.6 0.9 0.9 1.3 0.5 0.7 1.1 1.3 2 1.6 1.2 0.3 2.2 1 3.2 1.7 1.2 1.4 2.6 2.6 3.4 4.3 0.2 0.4 0.5 0.5 0.8 0.4 0.2-0.1 0.4-0.2 0.6-0.3 0.3-0.5 0.3-0.5 0.7-0.3q0.3 0 0.5 0 0.2-0.1 0.3-0.2 0.6 0 1.3-0.1c0.6-0.4 1.3-0.4 2-0.1q0.2 0.1 0.3 0.1c0.2 0 0.4 0 0.5 0.2 0.6 0 1.3 0 1.8 0.3 0.2 0.1 0.5 0.1 0.8 0.1q0.1 0.1 0.2 0.2 1.2 0.3 2.1 1.1 0.2 0.1 0.3 0.2 0.1 0 0.2 0 0.2 0.1 0.3 0.2c0.3 0.5 0.9 0.7 1.2 1.1q0.9 1.2 1.8 2.3c0.8 0.9 1.1 2 1.5 3.1 0.4 1 0.5 2.1 0.4 3.2 0 0.7 0 1.4 0.3 2 0 0.2 0 0.4 0 0.6-0.3 1.3-0.3 2.6-0.6 3.8 0 0.1 0 0.2-0.1 0.2 0 0.1-0.1 0.2-0.2 0.2-0.1 0-0.2-0.1-0.2-0.3q0-0.2-0.1-0.4-0.1-0.1-0.2-0.2 0-1-0.1-1.9c0-0.5 0-0.9 0.3-1.3 0.1 0 0.1-0.2 0.1-0.3-0.5-0.8-0.6-1.7-1-2.4-0.7-1.2-1.2-2.5-2.1-3.5-0.5-0.6-1-1-1.6-1.3q-0.1-0.1-0.3-0.2-0.4-0.2-0.8-0.5-0.1-0.1-0.2-0.2c-0.6-0.6-1.2-1.1-2.1-1-0.4 0-0.7-0.2-1-0.5-0.4 0-0.8 0.3-1.2 0.2-1.1-0.2-2.3-0.4-3.4 0q-0.1 0-0.3 0c-0.6-0.1-1.2 0.1-1.8 0.3q-0.1 0.1-0.3 0.2c-1.1 0.6-2.1 1.4-3.1 2.2-0.2 0.1-0.4 0.4-0.6 0.4-0.6 0.1-0.8 0.5-1.1 0.9q-1.3 1.6-2.7 3.1c0 0.1-0.1 0.1-0.2 0.1q-0.2 0.2-0.3 0c0-0.9 0.4-1.8 0-2.7-0.1-0.1 0-0.3 0-0.5 0.1-0.3 0.1-0.5 0-0.8-0.1-0.4-0.1-0.8-0.1-1.2q-0.4-0.2-0.1-0.5-0.1-1.4-0.6-2.8-0.2-0.7-0.5-1.4c-0.1-0.2-0.1-0.4-0.2-0.5-0.6-0.5-0.9-1.3-1.3-2-0.2-0.4-0.5-0.8-0.9-1-0.4-0.2-0.7-0.5-0.8-0.9q-0.2-0.7-0.9-0.7-0.7 0.1-1.2-0.3c-0.2-0.2-0.5-0.2-0.8-0.2q-0.1-0.1-0.2-0.2c-0.3 0-0.6 0-0.8-0.2-0.4-0.3-0.8-0.3-1.3-0.3q-0.2-0.2-0.5-0.5 0.4 0 0.7 0 0.2-0.1 0.3-0.3z"/><path class="b" d="m143.6 247.5q-0.1 0-0.2 0 0.1-0.2 0.2 0z"/><path fill-rule="evenodd" class="c" d="m214.3 220.8q0.6 0.6 1.3 1.2c0.4 0.5 0.8 1 1 1.6 0.1 0.3 0.3 0.6 0.5 0.9 0.1 0.2 0.4 0.4 0.4 0.6 0.5 1.1 1 2.3 1.1 3.5q0.1 0.9 0.2 1.8c1.7 1.1 3 2.5 4.1 4.2 0.2 0 0.4 0 0.6 0q1.5-0.5 2.9-1.1c0.2-0.1 0.4-0.2 0.6-0.2 0.9 0 1.7-0.1 2.6-0.2 1-0.1 2-0.3 2.8 0.4 0.2 0.1 0.6 0.2 0.9 0.1 1.1-0.2 2 0.2 2.9 0.6 1.1 0.5 2.1 1.3 3.2 1.8 0.5 0.2 0.9 0.6 1.1 1 0.2 0.4 0.5 0.7 0.8 1 0.7 0.5 0.7 0.5 1.3 0.1 0.3-0.2 0.7-0.3 1-0.2 0.4 0.3 0.8 0.5 1.3 0.3 1.1 0.2 2.2 0.8 3.1 1.6 0.6 0.5 0.9 1.2 1.4 1.8 0.6 0.6 0.7 1.2 0.5 2q-0.1 0.9-0.4 1.7-0.1 0.4-0.3 0.7c-0.5 0.7-1.1 1.3-1.6 1.9-0.5 0.2-1 0.3-1.5 0.4-0.9 0.3-1.7 0.4-2.6 0.3q-0.4-0.1-0.9 0c-1.3 0.1-2.6 0.4-4-0.1-0.2-0.1-0.5-0.1-0.7-0.1-0.7 0.2-1.3 0-1.9 0-0.9 0.1-1.9 0.1-2.8-0.1-0.2-0.1-0.4-0.1-0.6 0-0.6 0.2-1.1 0.2-1.6 0-0.3 0-0.5 0-0.8 0-0.8 0.1-1.7 0.1-2.5 0.2q-0.8 0-1.7-0.2c-0.4-0.1-1 0.1-1.6 0.2-0.2 0-0.5-0.1-0.7-0.2-0.2 0-0.4 0-0.6 0-1 0.3-2.1 0.3-3 0.1q-2.1-0.5-4.2 0c-0.2 0.1-0.4 0.1-0.5 0.1-1.1-0.4-2.1-0.3-3.1 0-0.3 0.1-0.5 0-0.8-0.1-0.5-0.1-0.9-0.2-1.4 0.1-0.6 0.3-1.3 0.3-1.9-0.1-0.3-0.2-0.7-0.3-1.1-0.1-0.4 0.2-0.8 0.2-1.2 0.1-0.9-0.1-1.8-0.2-2.8 0-0.8 0.1-1.6 0-2.3 0.2-0.1 0-0.1 0-0.2 0q-1.7-0.2-3.3-0.3c-0.2 0-0.4 0-0.5 0-0.6 0.6-1.3 0.2-2 0.3-0.4 0-1 0-1.3-0.2-0.6-0.3-0.9 0.1-1.4 0.1-0.2 0-0.5 0-0.7-0.1-0.5-0.2-0.9-0.1-1.4 0-1.1 0.3-2.2 0.3-3.2-0.1q-0.3-0.2-0.6-0.2-0.5 0.2-0.9 0.5c-0.5-0.1-1-0.3-1.4-0.2-1 0.1-1.9 0.3-2.9 0.1-0.5 0.3-1 0.1-1.5 0-0.3 0-0.6-0.2-1 0-0.3 0.3-0.7 0.2-1.1 0.1q-0.4-0.2-0.8 0-0.3 0.1-0.7 0.1c-1 0-2.1-0.2-3.1 0q-0.1 0-0.1 0c-0.9-0.3-1.7-0.3-2.5 0-0.2 0.1-0.5 0.1-0.7 0-0.6-0.1-1.3-0.2-2 0.1-0.1 0.1-0.3 0.1-0.5 0.1-0.9-0.3-1.8-0.1-2.7-0.1-0.9 0-1.8 0.2-2.6-0.2-0.6-0.3-1.1-0.2-1.7 0-0.5 0.2-1 0.4-1.6 0-0.1-0.1-0.3-0.1-0.4-0.1q-1.3 0.1-2.5 0.2c-0.7 0.1-1.5 0.1-2.2-0.1-0.3-0.1-0.6 0-0.9 0.1-0.9 0.1-1.8 0.5-2.7 0.2-0.5-0.2-1 0.1-1.5-0.2-0.1-0.1-0.3 0-0.5 0-0.2 0.1-0.4 0.1-0.6 0.1-0.7-0.1-1.3-0.3-2.2-0.5-0.8 0.2-1.7 1-2.8 0.6-0.5 0.2-0.9 0-1.4-0.1-0.5-0.1-1-0.1-1.6-0.2-0.8 0.9-1.7 0.5-2.5-0.1q-0.5 0.3-0.9 0.5c-0.5 0.2-0.9 0.3-1.4 0.2-0.8-0.2-1.6-0.3-2.5-0.4-0.4 0-0.8-0.1-1.2 0.1-0.3 0.1-0.5 0.1-0.8 0-0.3 0-0.7 0-1 0.1-0.3 0.1-0.6 0.1-0.9 0.1-0.8 0-1.6-0.1-2.4 0-0.4 0.1-0.9-0.2-1.3-0.3-0.3 0-0.6-0.1-0.9-0.1-0.7 0.2-1.5 0.1-2.1 0.5-0.3 0.2-0.7 0.2-1.1 0.2-0.7-0.1-1.2-0.3-1.6-0.6-0.8 0.7-0.8 0.6-1.8 0.6q-0.4 0-0.7 0c-0.9-0.1-1.8-0.1-2.7-0.5-0.6 0.5-1.2 0.4-1.9 0.4-0.6 0.1-1 0.1-1.4-0.2q-0.6-0.4-1.3-0.1c-0.5 0.2-1.1 0.3-1.7 0.5-0.3-0.1-0.7-0.2-1-0.4-0.8 0.3-2.6 0.5-3.3 0.3-0.5-0.2-1-0.2-1.5 0-0.4 0.2-0.8 0.1-1.2 0-0.6-0.3-1.3-0.2-1.9 0-0.1 0-0.3 0.1-0.4 0.1-0.9-0.2-2 0.1-2.8-0.5-0.8 0.3-1.5 0.6-2.3 0.4-0.2 0-0.3 0-0.5 0.1-0.5 0.1-1 0-1.5-0.2-0.2-0.1-0.5-0.2-0.7-0.1-0.5 0.2-1 0.1-1.5-0.1-0.1-0.1-0.3-0.1-0.5-0.1-0.9 0.3-1.8 0-2.6-0.2-0.6-0.1-1.1 0-1.6 0.3q-0.3 0.2-0.6 0.4c-0.9-0.6-1.9-0.5-2.9-0.4-0.6 0.1-1.2 0.1-1.7-0.2-0.2-0.1-0.4-0.1-0.5-0.1q-1 0-1.9 0.1-0.4 0-0.6 0.1c-0.8 0.4-1.5 0.5-2.2 0.1-0.2-0.1-0.4-0.2-0.5-0.1-0.8 0.2-1.5 0-2.3-0.1-0.5-0.1-1-0.1-1.5-0.2-0.4 0-0.8 0-1.1 0.2-0.2 0.2-0.5 0.3-0.6 0.3-1.4-0.4-2.7-0.6-4-0.1-0.2 0-0.4 0-0.6-0.1q-1-0.3-2-0.6c-0.4 0.2-0.7 0.4-1 0.5-0.5-0.2-1-0.4-1.6-0.1-0.2 0.1-0.4 0.1-0.6 0-0.6-0.3-1.2-0.1-1.8-0.1-0.4 0.1-0.7 0.1-1.1-0.1-0.5-0.2-1.1-0.2-1.6 0.1-0.4 0.3-0.7 0.3-1.2 0.1-0.4-0.3-0.8-0.3-1.3-0.1-0.3 0-0.6 0-0.9-0.2-0.4-0.2-0.7-0.2-1.2-0.1-0.5 0.1-1 0-1.5 0-0.5 0-1.1-0.1-1.5 0-0.7 0.2-1.4 0.3-2.1 0.1-0.1 0-0.3 0-0.4 0-0.6 0.3-1.3 0.1-1.9 0.1-0.4 0.1-0.8 0-1.1 0-0.8-0.1-1.5-0.2-2.2 0.1-0.1 0.1-0.2 0-0.3-0.1-0.2 0-0.5-0.1-0.7-0.1-0.9 0.2-1.9 0.2-2.9-0.1-0.1 0-0.2 0.1-0.4 0.1-1.1-0.1-2.3 0.2-3.5-0.1-0.2-0.1-0.4-0.1-0.5 0-0.6 0.4-1.3 0.2-1.9 0.1-0.5-0.1-1-0.1-1.5-0.1-1.5 0.1-3 0.3-4.6-0.1q-0.1 0-0.2 0c-1.5 0.3-3.1-0.2-4.6 0.1-0.7-0.2-1.4-0.2-2.1-0.2q-2.6-0.1-5.2-0.2c-0.7 0-1.3 0-1.9 0-1.4 0-2.8 0-4.1 0-0.9 0-1.7-0.1-2.6 0.3 0 0.1-0.1 0.2-0.2 0.4-0.1 0.1-0.2 0.2-0.5 0.6 0.1-1.2 0.5-2.1 0.8-2.9 0.3-0.8 0.6-1.5 1.4-1.8 0-0.1 0.1-0.1 0.1-0.2q1.2-1.3 2.8-1.9c0.4-0.1 0.7-0.3 0.9-0.5 0.6-0.5 1.3-0.6 2-0.4 0.3 0.1 0.5 0.1 0.8 0 0.3-0.1 0.5 0 0.8 0q1.1 0.2 2.2 0.4c0.7-0.9 1.3-1.8 2.1-2.5 0.5-1 1.4-1.6 2.3-2.1 0.4-0.3 0.7-0.6 0.7-1.1q0-1.5 0-3 0-0.6 0.2-1.2 0.6-2.7 1.9-5c0.1-0.3 0.3-0.6 0.4-1 0.3-1.4 1.3-2.3 2.3-3.3 0.9-1 2.2-1.7 3.1-2.8 0.1-0.1 0.3-0.2 0.4-0.2q0.8-0.5 1.6-0.9c0.5-0.3 1-0.6 1.5-0.7 0.6-0.2 1.1-0.5 1.6-0.7 0.7-0.3 1.4-0.7 2.2-0.8 1.2-0.2 2.6-0.2 3.9-0.4 0.8-0.1 1.6 0.4 2.5-0.1 0 0 0.1 0 0.2 0.1 0.8 0.5 1.7 0.1 2.5 0.4 1.2-0.1 2.3 0.2 3.5 0.9q0.1-0.3 0.3-0.6c0.8-1 1.7-1.7 3-2.1 1.4-0.4 2.6-0.3 3.9 0.4 0.3 0.1 0.6 0.2 0.7 0.2 0.5-0.4 0.7-0.9 1.1-1.1 0.5-0.3 0.8-0.6 1-1 0.4-0.6 0.7-1.3 1.6-1.3 0.1 0 0.1-0.1 0.2-0.1 0.5-0.7 1.3-0.7 1.9-1.1 0.5-0.3 1.2-0.5 1.8-0.5 0.8-0.1 1.6-0.2 2.4-0.3 0.6 0 1.2 0 1.9 0.1q0.3 0 0.7 0c0-0.6 0.1-1.2 0-1.7-0.2-1.2 0.2-2.3 0.7-3.3 0.2-0.5 0.5-1.1 0.9-1.4 0.8-0.6 1.5-1.2 2.5-1.5 0.5-0.2 1.1-0.3 1.7-0.5q-0.7-1.7-1.3-3.3c-0.1-0.2-0.1-0.4-0.1-0.7 0-0.1 0-0.3-0.1-0.4-0.4-0.5-0.2-1.1-0.2-1.6-0.1-0.6-0.1-1.1 0-1.7 0.3-1.1 0.6-2.2 1.1-3.3 0.3-0.5 0.5-1.1 0.8-1.6 0.3-0.5 1-0.7 1.1-1.3 0.8-0.5 1.2-1.4 2.1-1.7 0.3 0 0.4-0.3 0.6-0.4 0.3-0.1 0.5-0.4 0.7-0.4 0.6-0.1 0.8-0.5 1-1 0.2-0.5 0.4-1 0.7-1.5 0.6-0.9 1.6-1.7 2.1-2.7 0.7-0.1 0.8-0.8 1.3-1.2 0.6-0.3 1.1-0.7 1.6-1.2 0.8-0.8 1.8-0.9 2.6-1.7 0 0 0.1 0 0.2 0 0.4-0.1 0.8-0.2 1.2-0.4 0.4-0.2 0.9-0.1 1.4-0.3 0.3-0.1 0.8 0 1.2 0q1.7 0.1 3.4 0.2 0.5 0 0.9 0.1 1.2 0.3 2.4 0.6c0.4-0.6 0.7-1.2 1.1-1.7 0.8-1.5 2.2-2.1 3.8-2.5 0.3-0.1 0.7-0.1 1 0 0.4 0.1 0.8 0.1 1.3-0.1-0.6-1.3-0.8-2.7-1.2-3.9-0.1-0.2-0.1-0.4-0.1-0.5 0.2-0.8-0.1-1.6 0-2.4 0.1-1.1 0-2.2 0.1-3.3 0-0.4 0.1-0.7 0.2-1 0.4-1 0.9-1.8 1.3-2.8q0.1-0.4 0.3-0.7c0.7-0.8 1.4-1.4 2.1-2.2 0.1-0.2 0.4-0.3 0.6-0.4 0.2-0.1 0.4-0.2 0.6-0.3 1.1-1.1 2.6-1.6 4-2.2 0.7-0.4 1.6-0.5 2.4-0.7 0.2-0.1 0.4-0.2 0.6-0.2q2.6-0.2 5.1 0.3c0.4 0 0.7 0.2 1.1 0.2 1 0.3 1.9 0.8 2.8 1.2 1.3 0.6 2.5 1.5 3.7 2.3 0.8 0.5 1.4 1.3 2.1 2 0.4 0.4 0.7 0.5 1.2 0.3 0.2-0.1 0.4-0.2 0.6-0.3 0.5-0.3 1-0.8 1.7-0.7 0.1 0 0.3 0 0.4-0.1 0.4-0.5 0.9-0.4 1.4-0.5 0.5 0 0.9 0 1.4-0.2 0.7-0.6 1.7-0.6 2.5-0.5 0.9 0.1 1.6 0.2 2.4 0 0.2 0 0.5 0 0.6 0.1 0.3 0.2 0.6 0.2 1 0.2 0.2 0.1 0.5 0.1 0.7 0.2q1 0.2 2 0.5 0.5 0.1 1.1 0.3c0.2 0.1 0.5 0.2 0.7 0.3 0.5 0.1 0.9 0.2 1.2 0.5 0.2 0.3 0.7 0.2 1 0.4 0.2 0.2 0.4 0.5 0.6 0.8 0.1 0.1 0.3 0.1 0.5 0.2 0.2 0.2 0.4 0.3 0.6 0.5 1 1.1 2 2.1 3 3.2 1 1.2 1.7 2.5 2.1 4 0.2 0.5 0.2 1.1 0.4 1.6q0.5 1.5 0.5 3c0 0.1 0.1 0.3 0.2 0.4q0.1 0 0.2 0c1.3-0.6 2.7-0.9 4.2-0.9q0.3 0 0.6 0c1.1 0 2.1-0.1 3.1 0.5 0.1 0 0.3 0.1 0.4 0.1 1.6 0.2 2.5 1.6 3.8 2.2 0.2 0.5 0.7 0.6 0.9 1 0.5 0.8 1 1.7 1.5 2.6 0.2 0.2 0.6 0.3 0.9 0.5 0.8-0.5 0.8-0.5 1.5-0.3 0.4 0.1 0.8 0.2 1.3 0.1 0.2-0.1 0.5-0.1 0.6 0 0.6 0.6 1.3 0.9 2.1 1 0.7 0.5 1.6 0.5 2.2 1.2 0.1 0.1 0.4 0.2 0.6 0.2 0.4 0.1 0.7 0.3 1.1 0.6 0.4 0.2 0.7 0.4 1.1 0.6 0.5 0.2 0.9 0.5 1.1 1q0.1 0.5 0.3 1c0.8 0.3 1.2 0.5 1.3 0.9 0.1 0.6 0.5 0.9 0.9 1.2 0.2 0.2 0.5 0.3 0.5 0.5 0.2 1.1 0.9 1.8 1.3 2.8 0.5 1.2 0.7 2.5 1.1 3.8 0.1 0.4-0.1 0.8 0 1.3 0.2 0.7 0.3 1.4-0.1 2.2-0.1 0.1-0.1 0.4-0.1 0.6 0 0.9-0.1 1.8-0.5 2.7-0.3 0.6-0.4 1.3-0.6 1.9 0.4 0.5 0.7 0.9 1.1 1.2 0.5 0.4 0.5 1 0.7 1.5q0.1 0.1 0.2 0.2c0.2 0.3 0.2 0.5 0.2 0.9 0 0.6-0.1 1.2 0.1 1.9 0.6-0.1 1.1 0 1.6-0.1 1.3-0.2 2.4 0.6 3.6 0.8 0 0 0.1 0 0.2 0.1 0.4 0.5 0.9 0.8 1.5 1.1 0.8 0.4 1 1.2 1.5 1.8 0.2 0.2 0.3 0.4 0.4 0.7 0.2 0.8 0.6 1.6 0.9 2.5 0.9-0.1 1.8-0.1 2.6 0.3 0.8 0.5 1.4 1 2.1 1.6 0.7 0.6 0.6 1.6 1.1 2.4 0.3-0.1 0.6-0.1 0.8-0.2 0.3-0.2 0.7-0.3 1.1-0.2 0.7 0.3 1.5 0.2 2.3 0.3 0.3 0.1 0.5 0.1 0.7 0.3 0.5 0.4 0.9 0.8 1.6 0.8 0.1 0.1 0.3 0.1 0.4 0.3 0.3 0.5 0.9 0.6 1.4 0.8 0.2 0.3 0.3 0.6 0.5 0.9zm27.8 19.8c0 0.4 0.4 0.7 0.1 1.1-0.1 0.3-0.3 0.6-0.4 0.9-0.1 0.5-0.4 0.8-0.8 0.9-0.1 0-0.2 0-0.3 0 0-0.5 0-1.1 0.2-1.5 0.3-0.8 0.1-1.5-0.3-2.1-0.4-0.5-0.7-1.2-1.2-1.7-0.3-0.1-0.5-0.4-0.6-0.6-0.1-0.1-0.2-0.2-0.3-0.3-0.5-0.4-1-0.7-1.6-1-0.5-0.3-1.1-0.8-1.8-0.8-0.5-0.3-1.1-0.2-1.5-0.6-0.3-0.4-0.9-0.5-1.3-0.3-0.5 0.2-1 0.2-1.5 0-0.5-0.2-0.9-0.2-1.4 0-0.6 0.1-1.1 0.2-1.7 0-0.4-0.1-0.9 0-1.1 0.2-0.7 0.5-1.5 0.6-2.3 0.8q-1.9 0.6-3.8 1.4c-0.6 0.2-1.2 0.5-1.6 0.9-0.1 0.2-0.3 0.2-0.5 0.2-0.1 0.1-0.3 0-0.3-0.1-0.1-0.1-0.1-0.2 0-0.3 0.1-0.2 0.3-0.5 0.5-0.6 0.5-0.1 1-0.5 1.4-0.8 0.1-0.2 0.4-0.2 0.6-0.3 0.2-0.1 0.4-0.2 0.6-0.3 0.1-1-0.4-1.6-1-2.1-1-0.7-1.9-1.5-3.1-1.9-1.8-0.8-3.6-1.2-5.6-1-0.3 0-0.6 0.1-1 0.2 0.1 0.4 0.2 0.8 0.4 1.1 0.3 0.4 0.5 0.8 0.4 1.3 0 0.3 0.1 0.6 0.2 0.8 0.6 0.9 0.7 1.9 0.9 2.9 0 0.4 0.2 0.8 0.4 1.2 0.1 0.3 0.4 0.6 0.3 1.1-0.2-0.1-0.3-0.1-0.4-0.2-0.4-0.5-0.7-1.1-1-1.6q-0.8-1.6-1.1-3.4c0-0.1-0.1-0.3-0.2-0.4-0.5-0.3-0.5-0.8-0.8-1.2-0.2-0.3-0.5-0.6-0.5-1.1-0.7-0.6-0.8-1.7-1.7-2.1-0.4-0.2-0.3-0.9-1-0.9q-0.4-0.5-0.8-0.9c-0.4-0.4-0.8-0.7-1.3-0.8-0.6-0.3-1.4-0.3-1.8-1.1-0.1 0-0.4 0-0.5-0.1-0.7-0.1-1.3-0.3-1.9-0.5-1-0.3-2-0.5-3-0.4q-1.7 0.2-3.3 0c-0.2-0.1-0.3 0-0.4 0-0.3 1.2-0.5 2.4-0.6 3.7 0 0.4-0.2 0.8-0.4 1.1-0.3 0.5-0.5 0.9-0.6 1.4q-0.3 1.3-1.2 2.3c-0.1 0.1-0.3 0.1-0.6 0.3-0.1-0.9 0.1-1.7 0.4-2.4 0.1-0.2 0.3-0.4 0.3-0.6-0.1-1 0.3-1.9 0.6-2.8 0.1-0.5 0.3-0.9 0-1.4 0.1-0.9-0.3-1.8 0.3-2.6-0.5-1.3-0.7-2.7-0.8-4-0.1-0.6-0.2-1-0.5-1.5-0.4-0.7-0.8-1.3-0.9-2.2 0-0.2-0.2-0.4-0.4-0.6-0.3-0.4-0.7-0.8-0.9-1.2-0.3-0.8-0.9-1.3-1.4-1.8-0.3-0.4-0.9-0.5-1-1.1 0-0.1-0.2-0.3-0.4-0.3-0.7-0.4-1.2-0.9-2-1.1-0.5-0.2-1-0.5-1.3-0.9-0.4-0.5-0.8-0.6-1.3-0.7-0.7-0.2-1.3-0.4-2-0.6-0.8-0.2-1.7-0.4-2.6-0.3-0.6 0-1.2-0.2-1.8-0.3-0.6-0.1-1.1-0.3-1.7-0.3-0.5-0.1-0.9-0.1-1.4 0.1-0.1 0.1-0.4 0.1-0.5 0.1-0.6-0.3-1.1 0-1.6 0.1-0.5 0-1 0.4-1.5 0.1-0.8 0.2-1.6 0.2-2.4 0.7-0.5 0.3-1 0.6-1.6 0.6-0.2 0-0.4 0.2-0.6 0.3-0.5 0.4-1 0.8-1.6 1-0.3 0-0.6 0.3-0.9 0.4q-0.8 0.4-1.5 0.7c-0.1 0.1-0.3-0.1-0.4-0.2-0.1-0.1 0-0.3 0.1-0.4 1.4-1 2.7-2.2 4.3-2.9 0.9-0.5 2-0.9 3.1-0.9 0.3 0 0.7-0.1 1-0.3q1.3-0.6 2.7-0.4c0.1 0 0.3 0 0.3 0 0.6-0.5 1.3-0.3 1.9-0.2 0.4 0.1 0.8 0.1 1.1 0 1.1-0.4 2.1 0 3.1 0.1 0.7 0.5 1.5 0.4 2.3 0.5 0.8 0 1.5 0.3 2.3 0.6 1 0.3 1.9 0.9 2.9 1.2 0.6 0.3 1.2 0.7 1.7 1.1 0.6 0.5 1.2 0.9 1.7 1.5 0.4 0.6 1 1.1 1.5 1.7q0.4 0.5 0.9 1c0.5 0.4 0.9 0.9 0.9 1.6 0 0.1 0 0.3 0.1 0.3 0.5 0.5 0.5 1.1 0.9 1.7 0.4 0.7 0.8 1.5 1.2 2.2 0.1 0.2 0 0.3 0 0.5 0.1 0.6 0 1.2 0.1 1.8 0.1 0.3 0.3 0.6 0.5 0.9 0.1 0.4-0.4 0.9 0 1.4q1.5-0.1 3-0.2c0.2-0.1 0.4-0.1 0.5-0.1 1 0.2 2.1-0.1 3 0.4 1.6 0.1 2.8 1 4.2 1.4 0.5 0.1 0.8 0.4 1.2 0.7 0.1 0 0.2 0.2 0.3 0.2 0.9 0 1.3 0.8 1.9 1.2 0.1 0.2 0.3 0.4 0.5 0.5 0.4 0.2 0.6 0.5 0.8 0.8 0.6 0.9 0.7 0.9 1.5 0.6q0.7-0.3 1.4-0.3c1.6 0 3.2-0.1 4.7 0.5 0.3 0.2 0.7 0.1 1 0.2 0.3-0.3 0.1-0.5 0-0.7-0.3-0.6-0.5-1.3-0.5-2 0-0.6-0.2-1.2-0.7-1.6-0.2-0.2-0.3-0.4-0.4-0.7-0.4-0.9-0.9-1.7-1.7-2.3-0.4-0.3-0.5-0.9-1-1.2-1-0.5-2-1.1-3.1-1.4-0.5-0.1-1.1-0.3-1.7-0.5-0.1-0.1-0.3-0.2-0.3-0.1-0.7 0.4-1.4 0-2 0-0.6 0-1.3 0.2-1.9 0.2-0.4 0.1-0.8 0-1.3 0 0 0-0.1-0.2-0.2-0.4 0.5-0.3 0.9-0.7 1.4-1.1 0-0.2 0-0.5-0.1-0.7q-0.4-0.5-0.8-1c-0.8-1-1.4-1.1-2.8-0.6 0 0.9 0 1.8-1.1 2.2 0-0.1-0.1-0.1-0.1-0.2 0.4-0.8 0.2-1.6 0.1-2.5-0.1-0.5-0.4-1-0.3-1.6 0 0-0.1 0-0.1-0.1 0-0.6-0.7-0.8-0.8-1.4-0.1-0.5-0.4-0.9-0.9-1.1-0.2-0.1-0.3-0.3-0.4-0.5-0.4-0.8-1.1-1.2-1.9-1.5-0.2 0-0.4-0.2-0.7-0.3-0.5-0.2-1-0.4-1.5-0.5-0.4-0.1-0.8-0.1-1.2-0.4-0.3-0.3-0.8-0.3-1.2 0q-0.3 0.8-0.6 1.7c-0.1 0.4-0.3 0.8-0.8 1-0.2-0.1-0.2-0.3-0.1-0.4 0-0.2 0.1-0.3 0.1-0.4q0.1-0.8 0.1-1.7c0-0.5 0.2-1 0.1-1.6-0.1-0.4-0.2-0.9-0.4-1.3-0.2-0.4-0.5-0.8-0.7-1.2-0.3-0.7-0.8-1.1-1.5-1.3-0.4-0.1-0.7-0.4-1.2-0.6-0.8 0.5-1.8 0.3-2.7 0.1-0.3 0-0.5-0.1-0.8-0.1-0.1-0.1-0.2-0.2-0.2-0.3 0-0.1 0.1-0.3 0.2-0.3q1-0.5 2.1-0.9c0.2-0.1 0.4-0.1 0.6 0 1 0.2 1.1 0.2 2.3-0.2 0.1-0.3 0.3-0.7 0.4-1.1q0-0.1 0-0.1c0.6-1.5 0.6-3 0.6-4.6 0-0.7-0.1-1.4-0.4-2.1-0.2-0.4-0.4-0.9-0.2-1.4 0.1-0.3 0-0.7-0.2-0.9-0.6-0.3-0.7-0.9-1-1.5-0.2-0.5-0.4-1-0.9-1.4-0.3-0.3-0.3-0.8-0.6-1.3-0.4-0.3-1.2-0.6-1.3-1.5-0.7-0.2-1.4-0.5-1.8-1.2q-0.1-0.1-0.2-0.1c-0.8-0.4-1.2-1.1-1.6-1.8q-0.5 0.1-0.9 0c-0.2 0-0.5 0.1-0.6-0.1-0.8-0.7-1.9-0.5-2.8-0.9-0.3-0.1-0.6-0.2-0.9-0.4-0.3 0-0.5-0.2-0.7-0.2-0.7 0.1-1.3-0.5-2-0.1-0.6 0.4-1.2-0.1-1.8-0.2-0.4 0-0.8-0.4-1.3-0.4-0.1-0.1-0.2-0.3-0.2-0.4 0-0.2 0.1-0.4 0.2-0.4 0.4-0.3 0.9-0.4 1.3-0.8-0.1-0.3-0.2-0.6-0.4-0.8-0.6-0.6-1.2-1.4-2.1-1.8-0.1 0-0.2-0.2-0.3-0.2-0.9-0.1-1.5-0.7-2.1-1.4-0.6 0.2-1.2 0.3-1.7 0-0.2-0.2-0.5-0.1-0.8-0.1-0.5-0.1-1.1 0.1-1.6-0.2-0.1 0-0.3 0-0.4 0.1-0.7 0.6-1.6 0.4-2.4 0.7-0.4 0.2-0.9 0.2-1.4 0.2-0.4 0.6-0.2 1.3-0.4 2-0.1 0.6-0.2 1.2-0.3 2 0.3 0 0.5 0.1 0.8 0.1q1.1 0 2.3-0.2c1-0.1 2 0 3.1 0.3 1 0.4 2.1 0.7 3.2 1.1q0.2 0.1 0.3 0.2c0.5 0.6 1.2 0.9 1.9 1.2 0.2 0.1 0.5 0.2 0.6 0.3 0.4 0.3 0.7 0.7 1 1.1 0.1 0.2 0.1 0.4 0.4 0.4 0.5 0.2 0.8 0.8 1.3 1 0.1 0.1 0.2 0.2 0.2 0.3 0.3 1.3 1.3 2.3 1.4 3.7 0.1 0.2 0.3 0.3 0.3 0.5 0.1 0.2 0.2 0.4 0.2 0.5-0.2 0.8 0.1 1.6-0.2 2.4-0.2 0.3-0.1 0.8 0 1.1 0.1 0.8 0 1.4-0.6 1.9-0.2 0.2-0.4 0.5-0.3 0.8 0.1 0.5-0.1 0.9-0.4 1.3-0.3 0.5-0.7 1-0.8 1.6 0 0.5-0.5 0.9-0.8 1.2-0.5 0.5-1.1 0.8-1.7 1.2-0.1 0.1-0.4 0-0.7 0 0.4-0.6 0.7-1 1-1.5 0.3-0.3 0.5-0.6 0.6-1 0.2-0.5 0.7-0.8 1-1.2 0.1-0.1 0.3-0.3 0.2-0.4 0-0.7 0.3-1.3 0.5-1.8 0.1-0.2 0.1-0.4 0.1-0.7 0-0.2 0-0.4 0.1-0.6 0.3-1 0.2-2 0.2-3-0.1-1.8-0.1-1.8-0.7-3.6-0.3-0.8-0.8-1.5-1.4-2.1-0.4-0.4-0.7-0.9-1.1-1.3-0.7-0.8-1.6-1.2-2.4-1.9-0.7-0.1-1.3-0.5-1.8-0.9q-0.1-0.1-0.2-0.1c-0.8 0-1.4-0.3-2.1-0.5-0.7-0.2-1.4-0.3-2.1-0.4-1-0.2-2-0.3-3 0-0.5 0.1-1 0.2-1.4 0.3-0.7 1.6-1.8 2.8-3.1 3.9-0.2 0.2-0.4 0.5-0.8 0.2 0.1-0.1 0.1-0.4 0.3-0.5 0.7-0.5 1.1-1.3 1.5-2 0.4-0.6 0.7-1.3 1.2-1.9 0.1-0.2 0.2-0.5 0.2-0.8-0.1-0.6 0.1-1.1 0.3-1.7q0.1-0.3 0.1-0.6 0-1.7 0-3.4c0-0.2-0.1-0.4-0.2-0.6 0-0.2-0.1-0.4 0-0.6 0.3-0.8-0.2-1.4-0.5-2-0.2-0.7-0.7-1.2-0.6-1.9 0-0.2-0.2-0.5-0.4-0.7q-1.2-1.1-1.9-2.6c-0.2-0.3-0.3-0.5-0.6-0.6-0.1 0-0.2-0.1-0.3-0.1-0.4-0.9-1.3-1.1-2.1-1.6-0.4-0.3-0.9-0.6-1.2-0.9-0.5-0.6-1.1-0.8-1.8-0.9-0.5 0-0.9-0.1-1.2-0.6 0-0.1-0.1-0.2-0.2-0.2q-1.1-0.4-2.3-0.8-0.2 0-0.3 0c-1.1 0.2-2.3-0.2-3.4-0.2-0.4 0-0.8 0.1-1.2 0.2-0.8 0.2-1.6 0.1-2.4 0.2-0.3 0.1-0.6 0.1-0.8 0.2-0.4 0.4-0.8 0.4-1.3 0.1-0.4 0.9-1.2 0.9-1.8 1.1-0.7 0.3-1.3 0.5-1.8 1-0.4 0.4-1.2 0.4-1.6 1-1.5 0.9-2.9 2.1-4.3 3.2q-0.2 0.1-0.3 0.1c-0.1 0.1-0.4 0.1-0.4 0 0-0.1-0.1-0.3 0-0.4q0.2-0.4 0.6-0.7 2-1.9 4.1-3.8c0.4-0.3 0.8-0.6 1.2-0.8-0.5-0.7-0.9-1.2-1.4-1.8-0.1-0.1-0.2-0.2-0.4-0.3q-1.5-1-2.9-2c-0.2-0.1-0.4-0.1-0.5-0.1q-1-0.4-2-0.8c-0.2-0.1-0.4-0.1-0.7-0.1q-0.6-0.1-1.3-0.2c-0.2-0.1-0.4-0.1-0.5 0-0.4 0.2-0.9 0.1-1.3 0-0.6 0-1.3 0.1-2 0.2-0.2 0-0.4 0.1-0.6 0-0.4 0-0.8 0.1-1.1 0.3-0.1 0.1-0.3 0.2-0.5 0.2-0.6 0.1-1.2 0.1-1.6 0.7-0.7 0.1-1 0.6-1.5 0.9q-0.7 0.5-1.2 1-0.6 0.5-1.1 1c-0.2 0.3-0.4 0.7-0.6 1-0.1 0.2-0.2 0.4-0.4 0.5-0.5 0.3-0.7 0.7-0.7 1.3 0 0.2-0.2 0.4-0.4 0.6-0.3 0.3-0.6 0.6-0.5 1.1 0 0.1 0 0.3-0.1 0.4-0.7 1-0.4 2.3-0.5 3.5-0.2 1.1 0.1 2.3 0.4 3.5 0.2 0.9 0.4 1.8 0.8 2.7 0.3 0.8 0.5 1.7 0.8 2.5 0.2 0.5 0.3 1 0.2 1.6-0.2-0.1-0.5-0.2-0.6-0.4-0.6-0.9-1.2-1.9-1.8-2.9-0.2-0.2-0.6-0.2-1-0.1-0.8 0.2-1.6 0.3-2.3 0.6-0.5 0.2-0.9 0.5-1.3 0.8-0.5 0.6-1.3 0.9-1.8 1.6 1.1 0.5 2.2 0.9 3.1 1.5 0.2 0.2 0.5 0.3 0.6 0.5q1 1.2 1.9 2.4c0.1 0.1 0 0.2 0 0.4-0.5 0-0.7-0.3-1-0.6-0.8-0.6-1.4-1.3-2.3-1.6-1.1-0.5-2.1-1.1-3.3-1.3q-1.2-0.1-2.3-0.4c-0.4-0.1-0.7-0.1-1 0-0.6 0.3-1.1 0.3-1.6 0.1-0.3-0.1-0.5-0.1-0.7 0.1-0.1 0.1-0.3 0.2-0.5 0.1-0.4 0-0.7 0.2-1.1 0.3-0.4 0.1-0.8 0-1.3 0-0.9 0.5-1.8 1.2-2.9 1.5-0.1 0-0.2 0-0.3 0.1-0.6 0.6-1.5 0.8-2.1 1.4-0.7 0.7-1.8 1.2-2.3 2.2-0.2 0.4-0.6 0.7-0.9 0.9 0.1 0.3 0.3 0.4 0.4 0.4 1-0.4 2-0.2 3 0q2.2 0.3 4.2 1c0.4 0.2 0.8 0.4 1.2 0.6q0.5 0.3 1.1 0.7c0.9-0.9 1.7-1.6 2.7-2.2 0.4-0.3 0.8-0.6 1.4-0.7 0.2 0 0.3-0.1 0.5-0.2 0.1-0.1 0.2-0.3 0.4-0.4q0.4-0.1 0.7 0c0.9 0 1.8-0.7 2.6 0.1 0.2-0.1 0.4-0.2 0.6-0.3 0.3-0.1 0.7-0.1 1-0.1 0.7 0.2 1.4 0.3 2.3 0.5 0 0.1 0.2 0.3 0.4 0.6 0.6-0.1 1.1 0.2 1.6 0.6 0.3 0.3 0.6 0.4 1 0.6 0.8 0.4 1.6 1 1.8 2 0 0.2 0.1 0.4 0.2 0.6 0.9 0.7 0.9 1.7 1 2.7 0.1 0.6 0.2 1.1 0.3 1.8-0.1 0.5-0.1 1.1-0.4 1.7-0.3 0.6-0.8 1.2-1.2 1.8-0.1 0-0.2 0-0.2 0-0.1-0.7-0.1-0.7 0.4-1.9-0.2-0.8-0.4-1.6-0.2-2.5 0.1-0.7-0.3-1.2-0.7-1.7q-0.4-0.7-0.8-1.5c-0.3-0.5-0.6-1-1.1-1.3-0.1-0.1-0.2-0.2-0.3-0.3-0.4-0.9-1.1-1.3-2-1.5-1.2-0.3-2.4-0.7-3.5-1q-1.1 0.2-2.2 0.5c-0.6 0.1-1.2 0.1-1.5 0.6q-0.1 0-0.1 0.1c-0.4 0-0.7 0-1 0.1-0.3 0.1-0.5 0.5-0.8 0.6-0.8 0.2-1.3 0.6-1.7 1.3 0 0.1-0.1 0.2-0.2 0.3-0.9 0.6-1.1 1.6-1.6 2.5-0.8 1.4-0.7 2.9-0.6 4.5q0 0.6 0.1 1.3 0.1 0.6 0.4 1.2c0.2 0.4 0.4 0.7 0.6 1.1-0.1 0.2-0.3 0.1-0.4 0q-0.7-0.8-0.9-1.8c-0.4-2.2-0.7-4.3-0.1-6.5-0.1-0.9 0.7-1.5 1-2.4-0.2-0.1-0.3-0.4-0.5-0.5-0.9-0.3-1.7-0.8-2.5-0.9-0.9-0.1-1.8-0.4-2.7 0-0.6-0.2-1.1 0-1.7-0.1-1.1-0.1-2 0.1-2.9 0.7-0.6 0.3-1.1 0.6-1.7 0.9-0.2 0.2-0.3 0.4-0.5 0.5-0.2 0.2-0.4 0.4-0.7 0.6-0.4 0.2-0.8 0.4-0.9 1 0 0.1-0.1 0.2-0.2 0.3-0.5 0.2-0.6 0.8-0.9 1.2-0.7 0.8-0.7 2-1.4 2.8-0.1 0.3 0 0.8-0.1 1.1-0.3 1.1-0.4 2.2-0.4 3.2 0 0.4 0 0.9 0.2 1.3 0.4 1.4 1 2.8 1.9 4 0.5 0.7 0.9 1.6 1.6 2.2-1.3-0.4-1.9-1.6-2.8-2.4-0.7 0-1.3 0.1-1.9 0.4-0.9 0.3-1.7 0.9-2.1 1.8-0.1 0.3-0.3 0.5-0.4 0.7-0.3 0.3-0.6 0.5-0.7 0.9-0.1 0.3-0.2 0.7-0.4 1-0.1 0.1-0.1 0.4-0.1 0.6 0 0.5 0.1 1 0.2 1.6 0.4-0.1 0.7-0.2 0.9-0.1 0.3 0 0.5 0.3 0.8 0.3 0.8 0.3 1.7 0.5 2.4 0.9 0.7 0.3 1.2 1 1.9 1.5q2.7 1.7 4.4 4.5c0.8 1.3 1.5 2.7 1.6 4.2 0 0.3-0.1 0.5-0.2 0.9-0.3-0.2-0.6-0.4-0.6-0.5-0.4-1.7-1.5-3-2.4-4.4-0.1-0.2-0.2-0.4-0.4-0.5-0.5-0.3-0.8-0.9-1.3-1.2-0.4-0.3-1-0.3-1.5-0.6-0.5-0.2-1-0.4-1.2-0.9-0.2-0.4-0.5-0.5-0.8-0.5-0.5-0.1-1-0.2-1.4-0.5-0.5-0.4-1.2-0.3-1.6-0.7 0-0.1-0.2-0.1-0.2-0.1-0.7 0.3-1.3 0-1.9 0-0.8-0.1-1.5-0.1-2.3 0.3-0.4 0.2-1 0.3-1.6 0.3-0.4 0-0.7 0.1-1 0.4q-0.6 0.6-1.4 0.5-0.7 0-1.2 0.5c-0.6 0.5-1.2 0.8-1.7 1.2-0.4 0.3-0.7 0.5-1 0.9-0.7 1.1-1.5 2.2-2.2 3.3-0.1 0.3-0.3 0.5-0.4 0.7-0.1 0.1-0.2 0.3-0.2 0.4 0.3 0.6-0.1 1-0.3 1.5-0.4 1.3-0.5 2.6-0.2 4 0.3 1.5 0.8 2.9 1.4 4.3 0.2 0.7 0.7 1.2 1.1 1.7 0.3 0.5 0.6 0.9 1 1.4-0.5 0-0.8-0.2-1-0.4-1.4-1.5-2.6-3-3.4-4.8-0.3-0.7-0.7-1.5-0.5-2.3 0.1-0.2 0-0.5-0.1-0.6-0.2-0.5-0.3-1-0.2-1.5 0-0.4-0.1-0.8-0.3-1.1-0.2-0.4-0.5-0.7-0.9-0.7-0.4 0-0.7-0.1-1-0.2-0.8-0.4-1.6-0.4-2.4-0.4q-1.2-0.1-2.4-0.1c-0.2 0-0.5-0.1-0.6 0-0.5 0.4-0.9 0.4-1.5 0.4-1.1 0.6-2.4 0.8-3.6 1.2-0.3 0.1-0.6 0.2-0.7 0.4-0.3 0.6-0.9 0.9-1.4 1.3-0.4 0.5-0.8 1-1.2 1.5-0.4 0.4-0.8 0.8-1.2 1.3q-0.6 0.9-1.2 2c-0.4 0.6-0.6 1.2-1 1.9-0.3 0.7-0.3 1.5-0.6 2.2-0.3 0.7-0.3 1.4-0.3 2.2-0.1 0.6-0.2 1.3 0 1.9 0 0.1-0.1 0.3-0.2 0.3-0.1 0-0.3 0-0.4-0.1q-0.2-0.3-0.3-0.6c-0.2-0.6-0.3-1.1-0.4-1.6-0.5-0.1-1-0.3-1.5-0.3-0.6-0.2-1.2-0.2-1.9-0.1-1.2 0.4-2.5 0.5-3.7 0.8-0.8 0.2-1.5 0.5-2.3 0.8-0.2 0.1-0.4 0.4-0.6 0.5-0.2 0.2-0.4 0.4-0.6 0.4-0.8 0.1-1.2 0.7-1.7 1.1-0.2 0.2-0.4 0.4-0.6 0.5-1.1 0.4-1.4 1.6-2.2 2.3-0.1 0.9-1.1 1.2-1.4 1.9-0.1 0.2-0.3 0.4-0.5 0.5-0.2 0-0.4 0-0.5 0-0.1-0.1-0.2-0.3-0.2-0.5 0.1-0.3 0.2-0.6 0.3-1-0.2-0.1-0.4-0.1-0.6-0.2q-0.1 0-0.2 0c-2-0.2-3.8 0.1-5.6 1.1-0.1 0.1-0.3 0.1-0.5 0.2-0.8 0.9-1.7 1.6-2.1 2.8 0 0.1 0.1 0.2 0.1 0.3q1 0 2.1 0c0.7 0 1.4-0.1 2.1 0 1.3 0 2.6 0.1 3.9-0.1 0.6 0.3 1.3 0.1 2 0.1 1 0 2-0.1 2.9 0.1 0.2 0 0.4 0.1 0.5 0 0.9-0.3 1.8-0.1 2.7-0.1 1.5 0 3.1 0.1 4.7 0 0.9 0 1.8-0.1 2.6 0.1 0.2 0 0.4 0 0.5 0 1.1 0 2.2 0 3.2 0 1-0.1 2-0.2 2.9-0.3 0.2 0 0.4-0.1 0.5 0 0.7 0.2 1.4 0.1 2-0.1 0.2-0.1 0.5 0 0.7 0.1 0.6 0.2 1.1 0.2 1.7-0.1 0.2-0.2 0.6-0.3 0.8-0.2 0.6 0.3 1 0.1 1.5 0 0.4 0 0.9 0.1 1.4-0.1 0.6-0.2 1.4-0.2 2.1 0 0.4 0.2 0.9 0.2 1.4 0.1 0.3-0.1 0.7 0 1.1 0.1 1.3 0.2 1.4 0.2 2.5-0.3 0.6 0.4 1.2 0.3 1.9 0.2q1.9-0.1 3.8-0.3c0.8 0.3 1.6 0 2.4 0q1.1 0 2.2 0.3c0.4 0.1 0.8 0.3 1.1 0.2 0.3 0 0.5-0.1 0.7-0.1 0.9 0.3 1.9 0.1 2.8 0 0.2 0 0.3-0.1 0.4 0 0.5 0.4 1 0.2 1.6 0.1 0.7-0.1 1.4 0 2.1-0.2 0.6-0.1 1.2 0.3 1.7 0.7 0.6-0.2 1.3-0.3 1.9-0.5 0.6-0.2 1.1-0.3 1.7 0 0.4 0.1 0.8 0.1 1.2 0.1 0.6-0.1 1.1-0.1 1.6 0.2 0.4 0.2 0.8 0.2 1.2 0 0.1-0.1 0.3-0.2 0.4-0.2 1.2 0.2 2.3 0 3.3-0.1 0.4-0.1 0.8 0 1.2 0.2q0.7 0.3 1.3 0c0.4-0.2 0.7-0.3 1.1-0.1 0.8 0.5 1.8 0.3 2.6 0.4 0.7 0 1.4-0.3 2 0q0.1 0 0.2 0c0.7-0.6 1.3-0.2 2.1 0 0.4-0.5 1-0.5 1.7-0.4 0.6 0.2 1.2 0.3 1.8 0.2 1.5-0.2 2.9-0.1 4.4 0.3 0.3 0 0.6 0 0.8-0.2 0.2-0.1 0.5-0.1 0.8-0.1 0.9 0 1.9-0.1 2.9-0.1 0.6 0.1 1.2 0.1 1.8-0.1 0.1 0 0.3-0.1 0.4 0 1.1 0.4 2.4-0.1 3.5 0.4 1.1-0.2 2.2 0.2 3.2-0.3 0.3-0.1 0.6-0.1 0.8 0 0.5 0.2 1 0.1 1.5-0.1 0.7-0.3 1.4-0.3 2.1-0.3 0.2 0 0.4 0.1 0.5 0 0.7-0.2 1.2 0.1 1.5 0.6 0.8-0.2 1.6-0.4 2.3-0.4 0.4-0.1 0.8 0 1.2 0.1 0.1 0 0.2 0.1 0.3 0.1 0.9-0.3 1.7 0.2 2.5 0 0.7-0.3 1.5-0.5 2.3-0.2 0.1 0 0.3 0 0.4-0.1 0.4-0.5 1-0.4 1.5-0.2q0.5 0.2 1 0c0.2 0 0.5-0.1 0.8 0 0.4 0.2 0.8 0.2 1.3 0 0.2-0.1 0.5-0.1 0.6 0 0.5 0.3 1 0.1 1.5 0.1q0.3-0.1 0.6 0c0.6 0 1.2 0.2 1.7 0.1 0.5-0.1 1.1 0.2 1.6-0.1 0.5 0.1 0.9 0.2 1.5 0.4 0.6-0.6 1.4-0.5 2.1-0.8 0.2 0 0.4 0.1 0.6 0.1 0.3 0 0.5 0.1 0.8 0.1 0.4-0.1 0.8-0.1 1.3 0.2 0.6 0.4 1.3 0.2 1.9 0 0.5 0.1 0.8 0.5 1.2 0.3 0.4 0 0.8-0.1 1.1-0.4 0.3-0.3 0.7-0.3 1.2-0.2 0.2 0 0.4 0.1 0.6 0.1 0.7-0.3 1.5-0.1 2.2 0.1 0.4 0 0.7 0.1 1-0.1 0.7-0.4 1.4-0.1 1.9 0.1 0.8 0.4 1.5 0.3 2.2 0.1 0.2-0.1 0.4-0.2 0.6-0.2 0.4 0.2 0.7 0 1.1 0.1 0.1 0 0.3-0.1 0.4 0 0.7 0.1 1.3 0.4 2.1 0.1 0.7-0.2 1.4 0.1 2.1-0.1 0.3 0 0.6 0 0.8 0.1 0.4 0.2 0.8 0.2 1.2 0.2 0.8 0 1.7-0.1 2.5-0.1 0 0 0.2 0 0.2-0.1 0.9-0.7 1.9-0.1 2.8-0.2 0.9 0 1.7 0.2 2.7 0.4 0.7-0.6 1.7-0.3 2.7-0.3 0.1 0 0.3 0.2 0.4 0.1 0.6-0.2 1.2-0.2 1.8 0 0.5 0.1 1.1-0.1 1.6-0.1 0.2 0 0.4 0 0.5 0q0.9 0.4 1.7-0.2c0.8 0.3 1.5 0.5 2.4 0.4 0.1 0 0.3 0 0.5 0 0.6 0.3 1.1 0.2 1.7-0.2 0.1-0.1 0.4-0.1 0.7-0.1 0.5 0 1.1 0 1.6 0.1 0.6 0.2 1.1 0.1 1.6 0 0.5-0.1 1.1-0.3 1.6 0 0.4 0.2 0.8 0.1 1.1 0.1 0.6-0.1 1.1-0.4 1.6 0 1-0.2 2 0.4 3 0 0.2-0.1 0.4-0.1 0.5-0.1 1 0.5 2 0 2.9 0.3 0.7-0.2 1.3-0.1 1.9 0 0.4 0.1 0.8-0.1 1.1-0.2 0.7-0.2 1.4-0.1 2 0.1 0.4 0.2 0.7 0.2 1.1 0.1 0.9 0 1.7-0.2 2.6 0 0.5 0.1 1.2 0 1.9-0.1 0.7-0.1 1.5-0.1 2.2 0.1 0.3 0.1 0.6 0.2 0.9 0.1 0.4 0 0.8 0 1.1 0 0.9 0.1 1.8 0.1 2.7 0 0.7-0.1 1.3-0.1 2-0.1 1.1 0.1 2.2 0.3 3.3 0 0.2 0 0.4 0.1 0.6 0.1 0.3 0.1 0.5 0.1 0.7 0.1 1.3-0.3 2.6 0 3.9 0 1 0 2 0.2 3 0.2q1.1 0 2.2 0 1 0 2 0c0.8 0 1.6 0.1 2.4 0.1q1.2 0 2.3-0.2c0.5-0.1 0.9-0.2 1.4-0.1 0.2 0 0.4 0 0.6-0.2 0.4-0.3 0.9-0.3 1.4-0.4 1.2 0 2.1-0.6 2.6-1.7 0.3-0.8 0.6-1.5 0.4-2.4-0.1-0.8-0.7-1.2-1.1-1.8-0.2-0.4-0.7-0.5-1.2-0.7-1.1-0.3-2.3-0.6-3.5-0.4-0.1 0.3-0.3 0.5-0.2 0.8zm-221.4-5.4c0.7-0.3 1.4-0.5 2.1-0.3 0.2 0 0.5 0.1 0.8 0 1.2-0.6 2.4-0.3 3.6 0.1 0.4 0.1 0.9 0.2 1.4 0.3 0.1-0.3 0.1-0.5 0.1-0.7q0.3-1.2 0.5-2.4c0.2-0.8 0.2-1.6 0.5-2.2 0.3-0.7 0.7-1.3 1-2.1 0.1-0.5 0.4-1 0.8-1.4 0.6-0.7 0.9-1.5 1.6-2.1 0.3-0.1 0.3-0.5 0.5-0.8q0.3-0.1 0.7-0.2c0.2 0 0.4-0.1 0.4-0.2 0.2-0.8 1.1-0.7 1.5-1.1 0.5-0.4 1-0.6 1.6-0.9 0.4-0.2 0.8-0.4 1.3-0.3 0.1 0.1 0.3 0 0.5-0.1q1.1-0.2 2.1-0.3 0.9-0.1 1.8-0.1c0.5-0.1 0.9-0.1 1.4 0.1 0.4 0.2 0.9 0.2 1.4 0.3 1.3 0.2 2.5 0.8 3.8 1.2q0.4-0.9 0.7-1.7c0-0.2 0.1-0.4 0.1-0.5-0.4-0.6-0.1-1 0.4-1.4 0.4-0.4 0.4-0.9 0.6-1.5-0.9-0.1-1.8-0.1-2.6 0-1.1 0.2-2.2 0.5-3 1.4q0.3 0.5 0.7 1c-0.1 0.1-0.1 0.2-0.2 0.2-0.7-0.1-1.6 0-2.2-0.6-0.2-0.2-0.5-0.2-0.7-0.3-1.1-0.1-2.2-0.3-3.2-0.9q-0.5 0.3-0.9 0.5c-0.1 0-0.2 0-0.3 0-0.6-0.3-1.2-0.5-1.8-0.2-0.3 0.1-0.6 0.1-0.9 0.1-0.7 0-1.4-0.2-2 0.2-0.2 0.1-0.4 0-0.6 0.1-0.6 0-1.1 0.1-1.6 0.4-0.6 0.4-1.3 0.4-1.8 0.9-0.1 0.1-0.2 0.1-0.3 0.1-0.7-0.1-1.3 0.4-2 0.7-0.6 0.3-1.3 0.4-1.9 0.9-0.2 0.2-0.5 0.4-0.8 0.5-1 0.2-1.7 0.8-2.3 1.6-0.2 0.3-0.5 0.5-0.7 0.7-0.3 0.4-0.9 0.3-1.1 0.9-0.1 0.4-0.6 0.8-0.8 1.2-0.2 0.5-0.5 0.8-0.6 1.3-0.2 0.5-0.8 0.9-0.9 1.5-0.8 0.7-0.9 1.7-1.2 2.6-0.4 1.5-0.6 3-0.7 4.6 1.1-0.4 2.2-0.7 3.2-1.1zm137.3-63.5c0 0-0.1 0.1-0.2 0.2 0 0 0 0.1 0.1 0.1q0.1 0 0.3-0.1c0.1 0 0.1-0.1 0.3-0.2-0.2 0-0.4-0.1-0.5 0zm1.5-0.1c0 0.1 0.1 0.1 0.2 0.2 0 0 0.1-0.1 0.1-0.1q0-0.1-0.1-0.2-0.1 0.1-0.2 0.1zm-77.4 7.6q0-0.1 0-0.2 0 0.1-0.1 0.1 0 0 0 0 0.1 0.1 0.1 0.1zm-11.8 18.2q0 0 0 0.1 0 0 0.1 0 0-0.1-0.1-0.1z"/><path class="c" d="m111.2 236.5c-0.4-0.7-0.7-1.5-0.7-2.4 0-0.2-0.1-0.4-0.1-0.5-0.6-0.8-0.3-1.6-0.1-2.4 0.2-0.8 0.8-1.4 0.6-2.2 0-0.2 0.2-0.4 0.3-0.6 0.2-0.2 0.4-0.4 0.5-0.7 0.1-0.4 0.4-0.7 0.8-0.9 0.4-0.1 0.7-0.4 0.9-0.7 0.6-1.2 1.8-1.8 2.7-2.6 0.1-0.1 0.3-0.1 0.5-0.2 0.8-0.1 1.5-0.2 2.1-0.7 0.4-0.3 0.8-0.4 1.3-0.5 0.6-0.1 1.1-0.4 1.7-0.1 0.2 0 0.5 0 0.7-0.1 0.8-0.3 1.7-0.1 2.6-0.3 0.2 0 0.5 0.1 0.8 0.1 1.3 0.4 2.7 0.7 4.2 1 0-0.3 0-0.6 0-0.8-0.1-1.1 0-2.2 0.2-3.3 0.1-0.3 0.3-0.6 0.4-0.9 0.7-0.1 0.8-1 1.6-1.1 0.1 0 0.3-0.2 0.4-0.4q0.4-0.3 0.7-0.8c0.4-0.5 0.8-0.9 1.5-1 0.4 0 0.7-0.2 1-0.3 0.7-0.2 1.4-0.5 2.2-0.3 0.4 0.1 0.9 0 1.3-0.1 0.3-0.1 0.5-0.1 0.7 0q1.9 1 3.8 1.9c0.5 0.3 0.8 0.7 1 1.3-0.3 0-0.4 0-0.6 0q-0.6-0.2-1.1-0.6c-0.6-0.5-1.3-0.8-2.2-0.5-0.2 0.1-0.5 0-0.7-0.1-0.2 0-0.4-0.2-0.6-0.2-1.4 0.1-2.9 0.2-4.1 1.2q-0.1 0.2-0.3 0.2-0.6 0.4-0.9 1c-0.3 0.6-0.5 1-1 1.3-0.1 0.1-0.2 0.3-0.3 0.5-0.2 0.6-0.2 1.3-0.8 1.8-0.1 0.1 0 0.3-0.1 0.5q-0.1 0.8-0.2 1.5c0.3 0.7 0.9 0.9 1.5 1.2 0.1 0.1 0.3 0.1 0.4 0.2 0.7 0.6 1.4 1.1 1.9 1.8 0.6 0.8 1.3 1.5 1.5 2.5 0.1 0.2 0.2 0.4 0.3 0.5 0.5 0.4 0.5 1 0.4 1.6-0.6-0.3-1-0.5-1.1-0.8-0.4-0.7-1-1.2-1.4-2-0.4-0.7-1-1.1-1.6-1.5-0.9-0.6-1.8-1.1-2.7-1.8-0.7-0.6-1.5-0.8-2.5-0.8-0.5 0-1.1 0.1-1.6-0.1-0.7-0.2-1.3-0.1-2-0.2-0.4 0-0.7-0.2-1-0.1-0.6 0.3-1.3 0.1-1.8 0.4-0.6 0.3-1.1 0-1.7 0.1q-0.2 0-0.4 0.1-1.1 0.3-2.2 0.6-0.3 0.1-0.6 0.3c-0.7 0.4-1.3 0.8-2.2 1.3-0.1 0.4-0.3 1-0.9 1.3-0.2 0-0.3 0.3-0.4 0.5-0.3 0.5-0.5 1.2-0.9 1.6-0.3 0.4-0.5 0.8-0.7 1.2q-0.3 0.7-0.4 1.5c-0.1 0.3-0.1 0.6 0 1 0.1 0.1 0.1 0.4 0.2 0.6q0.1 0.9 0.2 1.9c0 0.4 0.1 0.9-0.2 1.4-0.6-0.3-0.6-0.9-0.8-1.3z"/></svg>