<svg version="1.2" xmlns="http://www.w3.org/2000/svg" viewBox="0 0 250 250" width="400" height="200"><style>.a{fill:#fff}.b{fill:#b3e1eb}.c{fill:#324c76}</style><path class="a" d="m79.6 82.6c1.8-3.8 2.9-8 6.1-11 0.7-0.8 1-1.9 1.6-2.8 0.6-0.8 1.1-1.8 1.9-2.2 1.4-0.8 2.6-1.8 3.5-3.1 0.2-0.4 0.6-0.8 1-1 1.8-0.4 2.9-1.6 4.2-2.7 1.4-1.2 3-2.1 4.7-2.9 2.5-1.1 5.1-2 7.7-3 0.9-0.3 2.1 0 2.7-0.6 1-0.8 2-0.8 3.1-0.8 2.1 0 4.1-0.5 6.2 0.1 2.1 0.7 4.3-0.2 6.4-0.2 2.5-0.1 4.8 0.6 7.3 0.7 0.4 0 0.9 0.3 1.3 0.6 1.1 1.1 2.5 1.4 4 1.5 1.4 0.1 2.5 0.7 3.5 1.6 1.2 0.9 2.4 1.9 3.7 2.2 3 0.8 5.1 2.6 7.4 4.4 0.3 0.2 0.7 0.4 0.8 0.7 0.5 1.6 1.2 2.9 2.8 3.5 0.4 2.3 2.7 2.7 4 4 0.6 0.6 1.5 1 1.8 1.7 1 2.1 2.6 3.9 3 6.2 0.2 1.2 0.8 2.2 1.6 3.2 0.8 0.8 1.1 2.1 1.3 3.3 0.3 1.8 0.2 3.7 0.7 5.4 0.5 2 0.4 4.1 0.6 6.1 0.3 1.9 0.2 3.8 0.4 5.8 0 0.4 0.2 0.9 0.5 1.3 0.2 0.5 0.1 1.3 1 1.3 0.2-0.2 0.4-0.5 0.6-0.8 1.6-2.8 0.7-5.9 1.4-8.8 0.2-1.2 0-2.5-0.3-3.7-0.4-2.2-1-4.4-1.5-6.7-0.3-1.5-0.6-3-1-4.8 1.1-0.1 2.1-0.2 3-0.2 2.2 0 4.4 0.1 6.5 0 2.4-0.1 4.7 0.4 6.6 1.4 2.4 1.3 4.5 2.9 6.6 4.5 0.9 0.6 1.3 1.7 1.9 2.6 2.2 2.8 4.1 5.6 4.7 9.3 0.3 1.7 0.4 3.3 0.6 5 0.5 3.4 0.1 6.8-0.8 10.1-0.4 1.5-0.8 3-1.3 4.6-0.2 0.8-0.1 1.6 0.6 2.3 3.7-3.2 3.7-7.8 4.8-12 0.9-0.9 1.9-1.5 3.2-1.6 1.9-0.3 3.8-0.8 5.7-1.1 1.6-0.2 3.3-0.9 4.9 0.5 0.3 0.3 1.1 0 1.7 0 2.2-0.1 4.4-0.2 5.8 2.1 0.1 0.2 0.6 0.3 0.9 0.3 0.8 0 1 0.5 1.5 0.9 1.2 0.8 2.6 1.4 3.6 2.4 1 1 1.6 2.3 2.4 3.6q0.1 0.1 0.3 0.2c1.5 0.5 1.6 2 2.3 3.1 0.8 1.5 0.2 3.1 0.7 4.6 0.2 0.6 0.1 1.3-0.8 1.7-1.2-0.5-2.7-0.8-3.9-1.5-2.4-1.6-5-1.5-7.6-1.8-0.1 0-0.1 0.2-0.2 0.5q0.5 0.3 1 0.6c2.2 1.2 4.5 2.1 6.4 3.6 1.1 0.9 2.1 1.9 3.5 2.4 0.5 0.1 1.1 0.6 1.3 1.1 0.9 1.7 2 3.3 3.4 4.6 0.3 0.4 0.7 0.9 0.7 1.3 0 2.5 1.6 4.5 2.3 7-0.7 1.7-0.6 3.7-0.4 5.6 0.1 0.7 0.1 1.5-0.1 2.2-0.6 2.8-0.8 5.7-2.3 8.2-0.5 0.8-0.4 1.9-0.6 2.9-0.2 0.6-0.2 1.3-0.6 1.7-1.4 1.3-2 3.2-3.2 4.7-1.3 1.5-2.3 3.5-4.6 3.9-0.2 0.1-0.5 0.2-0.6 0.4-1.7 2-4.4 2.5-6.3 4.1-0.8 0.7-1.7-0.1-2.4 0.2-0.9 0.4-1.6 1.1-2.5 1.6-0.3 0.1-0.9 0-1.4-0.2-0.8-0.3-1.6-0.2-2.4 0.2-0.7 0.4-1.6 0.5-2.4 0.6-2.2 0.5-4.4 0.2-6.5 0.3-2.7 0-5.4-0.2-7.9-0.9-3.9-1.1-7.8-2.6-11.3-4.9-3.8-2.5-7.9-4.7-10.8-8.5-0.3-0.5-1.2-0.6-1.8-0.9-0.5 1-0.5 1.8 0 2.6 1 1.6 2.3 2.8 3.5 4.1 1.2 1.5 2 3.3 4 4 0.5 0.2 0.7 0.9 1.1 1.4 0.3 0.4 0.5 0.9 0.9 1.1 2.1 1.5 4.6 2.1 6.5 3.9 0.6 0.5 1.9 0.4 2.8 0.7 0.1 0 0.2 0.4 0.5 0.8-1.4 0.8-2.7 1.9-4.3 2.5-1 0.4-1.8 1-2.7 1.6-0.9 0.6-2 0.8-3 1.2-0.5 0.2-1 0.7-1.6 0.8-1.2 0.4-2.6 1-3.8 0.9-1.5-0.1-2.6 0.4-3.7 1.1-0.3 0.1-0.7-0.1-1.1-0.1-3.4 0.6-6.6-1-10-0.6-1.8-0.7-3.6-0.5-5.4-0.6-0.6 0-1.2-0.1-1.8-0.3-1.4-0.5-2.9-1-4.6-1.7 1.1-1.1 2.1-2 3-3.1 0.9-1 1.9-2 2.4-3.2 0.5-1.2 2.3-1.8 1.9-3.9-0.7 0.5-1.3 0.8-1.6 1.2-1.1 1.7-2.6 3-4.2 3.9-1.4 0.8-2.6 1.8-3.8 2.8-1.4 1.1-2.9 2.2-4.4 3.3-4.1 3.1-9.2 4.2-13.7 6.6-1 0.6-2.4 0.4-3.5 0.7-2.4 0.7-5 0.8-7.5 1.2-3.1 0.5-6.1-1-9.2-0.5-0.5 0.1-1.1-0.4-1.6-0.8-0.9-0.8-1.8-1.2-3-0.8-1.2 0.5-2.1-0.1-2.9-0.9-0.9-0.9-1.8-1.8-2.7-2.7 0.1-0.2 0.2-0.5 0.4-0.6 1.8-1.3 3.4-2.7 4.1-4.9 0.3-0.8 1-1.5 1.7-1.9 1.9-0.9 3.2-2.2 3.9-4.1 2.3-2 2.2-5 2.9-7.7 0.2-0.7 0.2-1.7-0.9-2.1-0.9 0.5-1.5 1.2-1.8 2.2-0.1 0.4-0.3 0.9-0.5 1.3-2 3-5.4 4.9-6.6 8.5-0.1 0.4-0.7 0.7-1 1-0.5 0.4-1.1 0.7-1.4 1.2-0.9 1.8-2.6 2.5-4.4 2.9-1 0.3-1.8 0.8-2 1.9-0.3 0.8-0.7 1.2-1.5 1.4-0.6 0.2-1.2 0.4-1.6 0.9-1.6 1.8-3.8 2.4-6.1 2.6-0.8 0.1-1.6 0.1-2.1 0.5-2.2 2-5.2 1.2-7.6 2.4-0.2 0.1-0.8 0-1-0.2-1.4-1.1-3.1-0.4-4.6-0.5-1.1-0.1-2.2 0.3-3.2 0-1-0.2-1.8-1.1-2.2-1.4-1.7 0-2.9 0.2-4-0.1-0.9-0.2-1.5-1.2-2.4-1.5-1-0.4-2.2-0.1-3.1-0.5-2.1-1.1-4.2-2.3-6.2-3.6-1.7-1.1-3.6-2.2-4.9-3.8-1.9-2.3-4.1-4.4-5.9-6.8-0.6-0.9-1.5-1.6-2-2.5-1.7-3.5-3.8-6.7-5-10.4-0.5-1.7-1.5-3.3-2.2-4.9-1.2 0.7-1.2 0.7-1.1 1.1 0.4 3.3 1.3 6.4 3 9.2 0.8 1.4 1.4 3 2.2 4.5-1.5 1.2-3 1.3-4.7 1.1-1.3-0.1-2.8-0.5-3.9 0-2.3 1-4.1-0.1-6-0.6-1.6-0.5-3-1.5-4.5-2.3-1.6-0.8-3.3-1.5-4.9-2.4-0.6-0.3-1.2-0.8-1.7-1.3-0.9-0.9-1.4-2.3-2.7-2.9 0-1.7-1.4-2.4-2.4-3.3-0.3-0.3-0.3-0.7-0.4-1.1-0.2-0.7-0.1-1.5-0.5-2.1-0.6-1.1-1-2.2-0.5-3.4 0.6-1.5-0.9-2.5-0.9-3.8 0-0.3 0.1-0.7 0.2-1.1 0.1-0.4 0.3-1 0.1-1.4-0.9-3.2-0.2-6.2 1.5-9 0.1-0.2 0.2-0.5 0.2-0.7 0-1.6 1-2.7 1.8-3.9 0.7-0.9 1.4-1.7 2-2.5 0.4-0.5 0.7-1.1 1.2-1.4 3.2-2.1 6.6-3.7 10.3-4.4 0.3 0 0.7 0.1 1.2 0.2 0.5 2.3 1.7 4.2 2.9 6.2 1.1 1.9 2 4.1 3.3 6 0.9 1.3 2.1 2.3 3.3 3.3 0.3 0.3 1.1 0.2 2.1 0.3-1.4-2-2.6-3.5-3.6-5.1-1.8-2.8-3.7-5.4-4.1-8.9 0-0.4-0.4-0.8-0.5-1.3-1.2-3.3-1.4-6.8-2-10.2-0.1-0.6 0.2-1.2 0.4-1.8 0.3-1.3 0.3-2.6 0.2-3.9-0.1-2.4 0.5-4.8 0.9-7.2 0-0.1 0.1-0.2 0.1-0.3q1.9-3.9 3.8-7.8c0.2-0.4 0.5-0.8 0.8-1.2 2.2-2.1 4.3-4.2 6.5-6.4 0.7-0.7 1.4-1.2 2.4-1.4 1.9-0.2 3.4-1.2 4.6-2.7 1-1.3 2.5-1.9 4.2-1.9q1.3-0.1 2.5-0.4c1.9-0.4 3.7-0.8 5.6-1.3 1.9 1.3 3.7 0.6 5.6-0.1 0.1 0 0.2 0.2 0.3 0.2 2.1 0.4 4.2 0.8 6.4 1 1.9 0.2 3.8 1.4 5.9 1 0 0 0.2 0.1 0.3 0.2 1 0.9 2.1 1 3.4 1 1.4 0 2.5 0.8 3.3 1.9 0.8 1 1.5 2 2.4 2.8 2 1.8 4.5 3.1 5.9 5.6 0.2 0.4 0.9 0.4 1.2 0.7 0.5 0.4 1.1 0.7 1.3 1.3 0.9 2.2 2.8 3.6 4.3 5.3 0.3 0.3 0.7 0.4 1.3 0.7 0.1-1.6-0.3-2.7-0.8-3.8-0.9-1.6-1.5-3.3-2.9-4.6-0.2-2-2.2-2.8-3.1-4.3-0.9-1.5-2.5-2.3-3.6-3.6-1.2-1.4-2.4-2.6-4.5-2.6-0.1 0-0.2-0.2-0.3-0.2-0.9-0.8-1.8-1.6-2.9-2.5 0-0.4 0-0.6 0.1-0.8z"/><path class="a" d="m207.5 105.2q0.2 0.2 0.4 0.3c-0.1 0-0.2 0.2-0.2 0.2-0.1 0-0.2-0.1-0.3-0.2q0-0.1 0.1-0.3z"/><path class="b" d="m156.4 128.2c-0.7-0.4-1.4-0.9-2.2-1.3-3.4-1.5-6.9-2.2-10.5-0.7-1.2 0.5-2.3 0.8-3.5 0.8-1.8-0.1-2.1-0.3-2.3-2.1-0.5-3.6-0.3-7.5-3.6-10.2-0.4-0.4-0.5-1.1-0.8-1.6-0.9-1.5-2-2.9-3.6-3.5-1.3-0.5-2-1.3-2.7-2.3-0.6-1-1.4-2-2.2-2.9-1-1-2.1-2.1-3.8-1-0.5 0.3-1.1 0-1.7-0.2-1.7-0.4-3.3-0.8-5-1.2q-0.4-0.3-0.8-0.6c-1.8 0-3.6-0.4-5.1 0.9-0.3 0.2-0.8 0.3-1.1 0.2-1-0.4-2-0.2-3.1 0.2-1.2 0.4-2.2-0.8-3.5-0.7-0.8 0.1-1.6 0.1-2.5 0.2-0.1 0.4-0.2 1-0.6 1-0.8 0.1-0.8-0.6-0.9-1.2-1.3-1.7-1.8-3.8-3.4-5.4 0.2-2.8-3.2-2.7-3.9-4.7q-0.1-0.2-0.2-0.3c-1.2-1.2-2.2-2.6-3.8-3.2-1.7-0.6-2.9-1.7-4-3-0.4-0.5-0.9-0.8-1.5-0.9q-0.4-0.3-0.7-0.7c0.1-2.9 1.1-5.5 2.8-7.9 1.1-1.4 2.3-2.9 2.8-4.6 0.9-2.5 2.3-4.4 4.4-6 1.2-0.9 2.4-2.1 3.1-3.5 0.5-1 1.2-1.4 2.3-1.4 2.8-2.7 6.1-4.7 9.4-6.7 2.3-1.5 5.1-2 7.8-2.7 0.2 0 0.5 0.2 0.6 0.4 0 0.2-0.1 0.5-0.2 0.6-2.1 2-4.9 3.2-5.5 6.4-1.8 1.1-2 2.9-2.1 4.7 0 0.3-0.1 0.5-0.2 0.7-1.4 1.7-1.4 3.9-2.1 5.8-0.1 0.5-0.3 1-0.2 1.4 0.9 3.3 0.3 6.8 1.1 10.1 0.6 2.9 2.3 5.3 2.7 8.3 0 0.4 0.5 0.7 0.9 1.1 0.7 0.7 1.3 1.4 2.1 1.9 1.1 0.8 1.5 2.5 2.9 2.7 1.3 0.2 2.6-0.2 3.9-0.4q0.4-0.3 0.8-0.6c1-0.6 2-0.9 3.1-0.9 2.8 0.1 5.5 0.1 8.3 0.1 0.5 0 1 0.1 1.4 0.2q2.7 1 5.4 2 0.4 0.3 0.8 0.6c0.6 0.7 1.1 1.7 1.8 2.2 3 1.7 4.2 4.8 5.8 7.6 0.2 0.2 0.2 0.4 0.4 0.6 1.2 2.2 1.8 4.4 1.5 6.9q0 0.2 0 0.4 0.3 0.3 0.7 0.7 0 0 0 0 0.4 0.3 0.8 0.6c1.8 0 3.5 0.2 5.1 1.2 0.4 0.3 0.9 0.3 1.4 0.4q0.4 0.3 0.8 0.7 0.3 0 0.7 0 0.4 0.4 0.7 0.7c0.8 0.6 1.4 1.3 2.3 1.8 2.9 1.7 3.6 5 5.7 7.3 0.6 2.8 1.9 5.4 1.6 8.4-0.2 1.2-0.1 2.5 0 3.7 0.1 2.8-0.8 5.4-1.6 8.1-0.2 0.7-0.8 1.2-1.4 1.6q-0.4 0.5-0.7 0 0-3 0-5.9 0-0.8 0-1.6 0-0.7 0-1.4c0.3-3.7-0.8-6.9-2.8-10-0.6-0.8-1.2-1.5-2.1-1.9z"/><path class="b" d="m42.8 121q1.1 0 2.2 0.1 0.4 0.3 0.7 0.5 2.2 0.1 4.4 0.1 0.4-0.5 0.7 0 1.1 0 2.2 0 0.4-0.3 0.8-0.6 1.5-0.1 2.9-0.1c0.6-0.8 1.4-0.6 2.2-0.6q1.5 0 2.9 0 0.4 0 0.8 0 0.7 0 1.4 0 0.4 0.3 0.8 0.6c0 0 0.1 0.1 0.1 0.1 0 0.1 0.2 0.2 0.2 0.2-0.1 0.2-0.2 0.4-0.3 0.5q-0.8 0.1-1.5 0.1-0.4 0.3-0.7 0.6c-3.5 0-6.7 0.7-9.6 2.8-0.4 0.2-0.9 0.2-1.4 0.3q-0.4 0.3-0.8 0.6c-1.3 0.7-2.6 1.3-3.9 2-0.6 0.4-1.3 0.7-1.6 1.3-0.6 1.2-1.7 1.8-2.5 2.6-1.9 1.8-3.5 3.7-4.3 6.3-0.1 0.4-0.2 1-0.5 1.3-1.4 0.9-1.6 2.1-2 3.6-0.5 2.5-2.4 2.9-4.2 1.1-0.2-0.2-0.5-0.5-0.6-0.8-0.3-1.3-1.4-2-2-3-0.6-0.9-1.7-1.5-1.8-2.7q-0.3-0.3-0.7-0.7c-1.1-2.3-2.2-4.5-1.6-7.2 0.1-0.8-0.1-1.5-0.5-2.1-1.1-1.5-1.7-3.1-1.6-5 0-0.5-0.2-1-0.5-1.4-0.9-1.6-0.9-3.1-0.3-4.9 0.8-2.3 2-4.7 1-7.3-0.2-0.6 0.4-1.1 0.5-1.7 1-3 3.9-5.1 4-8.5 0-0.1 0.5-0.5 0.8-0.5 0.3 0 0.7 0.3 0.9 0.5 0.2 0.3 0.2 0.7 0.2 1.1 0 3.1 0.7 6.2 1.5 9.3 0.6 2.1 1.3 4.3 3.3 5.8 0.4 0.3 1 0.7 1.2 1.3 0.8 1.9 2.6 2.3 4.3 3q0.4 0.3 0.7 0.6 0.7 0.1 1.5 0.2 0.3 0.3 0.7 0.6z"/><path fill-rule="evenodd" class="b" d="m167.1 192.7c-0.6 0-1.1-0.1-1.4-0.7q-0.4 0-0.8 0c-1.5 0.9-2.9 1.1-4.2-0.2-0.9-0.8-1.8-1.3-2.9-1.2-0.8 0.1-1.4-0.2-2-0.7-0.9-0.9-1.9-0.8-3-0.3-0.5 0.2-1.1 0.3-1.7 0.4-0.2 1.4-1.3 1.3-2.2 1.3q-2.1 3.2-5.9 3.6-0.3 0.1-0.6 0.1c-0.4 2.3-2.1 2.2-3.8 2.2-0.3 0.6-0.9 0.7-1.5 0.6-0.9 0.1-1.6 0.3-2.4 0.7-1.9 1-4.1 1.9-6.2 1.4-2.7-0.7-5.2-0.7-7.9-0.1-0.3 0.1-0.7 0.2-1 0.1-3.8-1.1-8-0.4-11.4-3-0.9-0.7-2.1-0.4-3.2-0.5q-0.4-0.3-0.8-0.6c-0.5-0.3-1.2-0.4-1.6-0.7-1.1-0.9-2.1-0.9-3.3 0-1.7 1.2-3.8 1.8-5.3 3.4-0.2 0.1-0.5 0-0.7 0.1-0.5 0.7-1 0.8-1.5 0.1-0.8 0-1.7-0.1-2.3 0.5-1 0.9-2.1 1-3.3 0.9q-1.2 0-2.5 0c-0.5 0.8-1.4 0.7-2.2 0.7q-1 0-2.1 0c-1.2 0.5-2.4 1.4-3.7 0-2 0.1-3.9 0-5.8-0.8-1 0.1-2 0.2-2.3-1.2q-3.2-0.8-6.5-1.7-0.4-0.3-0.7-0.6c-1 0-2.1-0.1-2.6-1-1.1-2-3-2.7-4.8-3.5-1.5-0.7-2.6-1.6-3.6-2.9q-0.4-0.3-0.8-0.7-0.7-0.4-1.4-0.8-0.4-0.3-0.7-0.6c-1.4-0.5-1.3-2.1-2.1-2.9-1.4-1.4-2.8-2.7-4-4.1-0.8-1-1.7-1.3-2.9-1.2-1.2 0-2.4 0.3-3.6-0.1-2.5-0.8-5-0.7-7.6-0.1-1.2 0.3-2.4 0.4-3.5-0.4-1-0.8-2.2-0.8-3.4-0.8-0.6 0-1.4-0.1-1.7-0.4-1.5-1.9-3.8-2.6-5.6-4-0.5-0.4-1.1-0.7-1.2-1.3-0.3-1.7-0.9-3-2.8-3.4-0.4 0-0.7-0.6-1-0.9-1.8-1.9-3-4.1-3.9-6.5-0.3-1-1.3-2-1.2-2.9 0.1-1.8 0-3.3-0.9-4.8-0.2-0.4 0-1.2 0-1.8q0-2 0.1-4-1.2-0.7 0-1.5c0.2-0.9 0.4-1.8 0.6-2.8 0.1-0.4 0.2-1.1 0.5-1.3 1.6-0.8 1.8-2.5 2.4-3.9 0.7-1.5 1.6-2.7 3.1-3.4 3.8-2 4.4-2.5 4.9 2.6 0.1 0.3 0 0.7 0.1 1 0.7 4.3 2 8.2 5.9 10.8q0.3 0.3 0.7 0.6 0.4 0.1 0.7 0.1c0.6 0 1.2 0.1 1.5 0.7 0.8 0.4 1.7 0.7 2.7 0.8 2.5 0.3 5 0.8 7.5 0.8 1.6 0 2.5 1.1 2.1 2.6-0.6 2-0.5 4-0.5 6.1q0.3 0.3 0.6 0.7c1.1 1.2 2 2.7 3.5 3.6 1 0.6 1.6 1.4 1.7 2.5 0.1 0.8 0.5 1.4 1.2 1.8 0.9 0.5 1.3 1.3 1.9 2 0.8 1.2 1.8 2.3 3.3 2.7 0.3 0.1 0.7 0.3 0.9 0.5 1.8 2.1 4.3 3.1 6.5 4.5q0.4 0.3 0.8 0.6 1 0.2 1.6 1.1 0.7 1.1 2 1.1c1.1-0.6 1.1-0.6 2.2 0.7 1.7 0.1 3.3 1.2 5.1 0.9 0.6-0.1 1.1 0 1.5 0.5 0.9 0.6 1.8 1 2.9 0.8 0.6-0.7 1.4-0.6 2.2-0.6q0.4 0 0.7 0 1.5 0 3 0 1.4 0 2.8 0 0.4 0 0.8 0 2.2-0.1 4.4-0.1 0.4-0.3 0.8-0.6c1.6 0.2 2.8-1 4.3-0.9q0.4-0.3 0.8-0.6 1.5 0 2.8-0.7c1.9-1 3.9-1.7 5.9-2.3q0.4-0.3 0.8-0.6 0.7-0.1 1.4-0.2 0.4-0.3 0.8-0.6c1 0 1.9-0.2 2.7-0.8 1.2-0.8 2.4-1.6 3.8-2.1 2.1-0.7 3.9-1.8 5.5-3.2 1.7-1.6 2.5-1.6 4.5-0.4 2.7 1.5 5.3 3.3 8.3 4.3q0.4 0.4 0.8 0.7c1.3 0.9 2.8 0.8 4.3 0.8q0.4 0.3 0.8 0.5c1.5 1.2 3.4 0.9 5.1 0.9q0.4 0.3 0.7 0.6c0.9 0 1.8 0.2 2.6-0.1 1.7-0.5 3.5-0.5 5.4-0.4 0.6-0.1 1.2 0 1.5 0.6q1.7 0.2 2.9-0.9c0.5-1.2 0.6-1.3 1.5-0.5 2.3 0.1 4.5 0.2 6.6-0.9q0.4-0.2 0.8-0.5c2.3 0.2 3.7-1.2 5.1-2.7 0.4-0.5 0.7-0.9 1.3-1.1 0.6-0.1 1.3-0.1 1.7-0.5 2.6-2.6 6.6-3.4 8.7-6.6 0.1-0.2 0.5-0.2 0.7-0.3q0.3-0.3 0.6-0.6c0.2-0.7 0.5-1.3 1.1-1.8 3-2.2 5.1-5.3 7.1-8.4q0.3-0.4 0.6-0.7c0-1.2 1.5-1.6 1.5-2.7 0.1-1.3 1-2.1 1.7-3 0.3-0.5 0.4-1.1 0.6-1.7q0.3-0.3 0.6-0.7c0.1-0.8 0.1-1.7 0.8-2.3 0.4-0.3 1.1-0.4 1.3 0 0.3 0.8 0.6 1.6 0.8 2.4 1.2 4.9 2.4 9.6 5.1 13.9 1.8 2.9 3.2 6 6.2 7.9 0.5 0.3 0.9 0.8 1.3 1.3 1.1 1.1 2.3 1.9 3.6 2.4q0.4 0.3 0.7 0.6 1.9 0.8 3.7 1.6 0.4 0.3 0.7 0.6c3.2 0.3 6.3 1.2 9.5 0.9q0.4 0.3 0.8 0.6 1.1 0 2.2 0 0.3-0.3 0.7-0.6 0.7-0.1 1.5-0.1c0.3-0.6 0.8-0.7 1.4-0.7 2.2-0.9 4.6-0.9 6.6-2.3q0 0 0 0c0.5-0.8 1.1-1.3 2.1-1.3 0.8-0.8 1.8-1.4 3-1.6q0.3-0.4 0.7-0.8 0.5 0.1 0.9 0.2c-0.3 0.5-0.8 0.8-1.5 0.8-0.1 1.5-1.4 1.6-2.3 2.3-0.2 0.4-0.6 0.6-1.1 0.6q-0.1 0.4-0.3 0.7-0.4 0.4-0.8 0.7-0.3 0.1-0.7 0.1-0.3 0.1-0.4 0.2 0.1-0.1 0.4-0.2-0.3 0.3-0.6 0.7c-0.1 0.8-0.2 1.6-0.7 2.4-1.5 2.3-2 2.6-6 4.1-1 1.2-2.4 0.6-3.7 0.7q-1 0.4-2.1 0.8-0.4 0-0.8 0-0.7 0.1-1.4 0.2c-0.5 1.2-0.6 1.3-1.5 0.5q-6.4 0-12.7 0c-1.5 0-2.8 0-4.2-0.9-1.2-0.8-3.3 0.2-3.6 1.7-0.5 1.9-1.4 3.1-3.5 2.9-1.4-0.1-2.3 0.5-3 1.6-0.1 0.3-0.5 0.4-0.8 0.7-0.1 0.7-0.5 1.2-1.3 1.3q-1.2 0-2.4 0c-1.6 1.6-3.7 2.1-5.8 2.3q-0.7 1-1.5 0c-1.3 0-2.7-0.4-3.9 0-2.6 0.8-5.2 0.5-7.8 0.7-1.1 0.9-1.1 0.9-2.2-0.1zm74.7-24q0 0-0.1-0.1 0.1 0.1 0.1 0.1z"/><path class="b" d="m243.1 166.6c0.4-0.2 0.9-0.2 1.2 0.3 0.3 0.5-0.2 0.8-0.6 0.9q-0.2 0.1-0.4 0.1-0.4-0.1-0.9-0.2c0.2-0.3 0.4-0.8 0.7-1.1z"/><path fill-rule="evenodd" class="c" d="m20.1 179.4c-0.4 0.1-0.8-0.1-1.1-0.2-3.4-2.2-7.7-3.1-9.9-7-0.1-0.2-0.3-0.4-0.5-0.5-2.9-2.4-4.5-6-7-8.7-0.4-0.4-0.4-1.2-0.5-1.8-0.3-2.2-0.5-4.6-0.8-6.8-0.8-4.6 0.2-8.9 1.4-13.3 0.1-0.5 0.5-1.1 0.8-1.6q0.8-1.4 1.6-2.8c0.4-0.6 0.7-1.3 1.3-1.8 1.4-1.4 2.9-2.9 4.6-4.1 2.6-1.8 5.2-3.8 8.6-4.4 1-0.1 2.2-0.2 3-1.2q-0.3-0.9-0.5-1.8c-0.5-2-1.2-4-0.6-6.1-0.7-1.6 0.7-3.1 0.2-4.6-0.7-2 0.1-3.5 0.8-5.2 0.4-1 0.8-2 1.1-3.1 0.9-2.3 1.1-4.9 2.6-7.1 0.9-1.2 2.2-2.3 2.8-3.7 0.6-1.5 1.7-2.4 2.9-3.2 2.3-1.7 4.6-3.3 6.9-5.1 3-2.3 7.1-2.4 10-4.9 0.2-0.2 0.5-0.2 0.7-0.2 2.5 0.1 5-0.8 7.2 0.2 0.8-0.5 1.5-1.2 2-1.1 2.6 0.4 5.1-0.1 7.6 0.1 1 0.1 1.9 0.5 2.8 0.7 1 0.2 1.9 0.6 2.8 0.6 1.5 0 2.9 0.1 4.1 1.2 0.7 0.7 1.6 0.4 2.1-0.4q0.5-0.8 0.9-1.6c1.1-2.5 2.4-4.9 3.3-7.3 1.5-3.9 4-6.9 6.8-9.8 2.8-3 6.2-5.4 9.7-7.6 3.5-2.1 7.2-3.4 11-4.8 4-1.4 8.2-1.9 12.4-2.2 2.3-0.2 4.6-0.3 6.9 0 3.1 0.4 6.3 0.2 9.3 1.3 3.9-0.1 7.1 2 10.5 3.5 2.2 0.9 4.1 2.6 6.1 3.9 1.9 1.2 3.7 2.3 5.1 4.1 2.9 1.1 4.5 3.6 6.4 5.8 1.2 1.3 2.1 2.8 2.9 4.5 0.8 1.9 1.6 4.1 3.6 5.2 3.3-1.1 4.6-1.1 8.5-0.3 0.5 0.1 1 0.2 1.5 0.1 1.8-0.4 3.3 0.3 4.8 1 1.1 0.5 2.3 0.8 3.4 1.3q3.5 1.6 6.8 3.3c0.7 0.4 1.1 1 1.6 1.5 1.5 2.1 3 4.1 4.5 6.1 0.1 0.2 0.3 0.4 0.4 0.7 1 3.9 3.8 7.3 4 11.5 0 0.2 0.3 0.4 0.5 0.6 1.3 0 2.3-1.4 3.7-0.8 2.4 0.9 4.8 0.1 7.2 0.2 1.5 0.1 2.8 0.2 4.1 0.8 1.3 0.5 2.7 0.9 4 1.4 0.3 0.2 0.5 0.6 0.8 0.7 0.8 0.5 1.5 1 2.3 1.2 2 0.4 3.4 1.8 4.9 2.9 0.9 0.7 1.4 1.7 2.2 2.4 2.9 2.5 4.8 5.4 5.4 9.1 0.2 1.6 0.7 3.1 0.3 4.7-0.2 1.1 0 2.2 0.2 3.3 0.1 0.8 0.4 1.9 1 2.2 1.9 1 2.7 2.3 2.4 4.4 0 0.1 0.3 0.4 0.4 0.5 1.2 1.5 2.3 3.1 2.1 4.9-0.3 2.1 1.2 3.8 1 5.6-0.4 3.9-0.1 7.8-1 11.6-0.3 1.2-0.6 2.3-0.9 3.5-0.5 1.5-0.9 3-1.6 4.4-1.6 3.1-4.1 5.6-5.9 8.7-0.1 0.3-0.5 0.5-0.8 0.6-3.5 1.7-6.5 4.2-10.2 5.6-3.8 1.3-7.5 2.6-11.5 3.3-2.7 0.5-5.5 0.1-8.2 0.4-1.1 0.1-2.2 0-3.3-0.1-1.9-0.1-3.8-0.3-5.5-0.4-1.4 1.6-2.7 2.9-4.6 3.8-1.9 1.1-4.3 1.7-5.8 3.7-0.3 0.4-1 0.6-1.6 0.8-3.8 1.4-7.6 2.8-11.7 3.5-5.7 1-11.2 1-16.8-0.5-3.1-0.8-6-2.1-9-3-0.6-0.2-1.3-0.3-2-0.5-2.4 2.5-5 4.4-8.4 5.2-0.4 0.1-0.9 0.3-1.2 0.6-1.4 1.4-3.3 1.7-5 2.2-2.8 0.8-5.7 1.3-8.5 1.9-0.5 0.1-1 0.3-1.5 0.2-2.5-0.9-5-0.5-7.6-0.2-1 0.1-1.9 0.1-2.7-0.6-1.1-0.8-2.4-1.2-3.8-1-1.1 0.1-2.1 0-3.1-0.9-0.4-0.3-1.1-0.6-1.6-0.6-1.7-0.1-3-1.1-4.4-1.7-0.7-0.4-1.3-0.9-2-1.4-3.5 2.2-6.7 4.7-10.9 5.1-0.5 0.1-1.1 0.6-1.6 0.8-0.5 0.2-0.9 0.5-1.4 0.5-2.6 0-5.2 0.3-7.8 0.9-0.3 0.1-0.7 0-1.1-0.1-4.5-1.1-9.1-2.2-13.7-3.3-1.7-0.4-3.2-1.1-4.6-2.1-1.1-0.7-2.4-1.1-3.6-1.8-1.3-0.7-3-1-3.8-2.5-0.7-1.2-1.8-2-2.9-2.8-0.6-0.4-1.3-0.8-1.6-1.4-0.5-0.9-1.2-1.5-2-2-0.4-0.2-0.8-0.6-1-1-0.9-2.5-3.3-3.8-4.3-6.1-1.4 0.2-2.5 0.3-3.7 0.6-0.8 0.1-1.7 0.3-2.4 0.7-1.7 1.1-3.6 1.2-5.3 0.6-1.6-0.7-3-0.4-4.6 0.2-1.2-1-2-2-3.4-1.8zm62.3-93.5c0.1 0 0.2 0.2 0.3 0.2 2.1 0 3.3 1.2 4.5 2.6 1.1 1.3 2.7 2.1 3.6 3.6 0.9 1.5 2.9 2.3 3.1 4.3 1.4 1.3 2 3 2.9 4.6 0.5 1.1 0.9 2.2 0.8 3.8-0.6-0.3-1-0.4-1.3-0.7-1.5-1.7-3.4-3.1-4.3-5.3-0.2-0.6-0.8-0.9-1.3-1.3-0.3-0.3-1-0.3-1.2-0.7-1.4-2.5-3.9-3.8-5.9-5.6-0.9-0.8-1.6-1.8-2.4-2.8-0.8-1.1-1.9-1.9-3.3-1.9-1.3 0-2.4-0.1-3.4-1-0.1-0.1-0.3-0.2-0.3-0.2-2.1 0.4-4-0.8-5.9-1-2.2-0.2-4.3-0.6-6.4-1-0.1 0-0.2-0.2-0.3-0.2-1.9 0.7-3.7 1.4-5.6 0.1-1.9 0.5-3.7 0.9-5.6 1.3q-1.2 0.3-2.5 0.4c-1.7 0-3.2 0.6-4.2 1.9-1.2 1.5-2.7 2.5-4.6 2.7-1 0.2-1.7 0.7-2.4 1.4-2.2 2.2-4.3 4.3-6.5 6.4-0.3 0.4-0.6 0.8-0.8 1.2q-1.9 3.9-3.8 7.8c0 0.1-0.1 0.2-0.1 0.3-0.4 2.4-1 4.8-0.9 7.2 0.1 1.3 0.1 2.6-0.2 3.9-0.2 0.6-0.5 1.2-0.4 1.8 0.6 3.4 0.8 6.9 2 10.2 0.1 0.5 0.5 0.9 0.5 1.3 0.4 3.5 2.3 6.1 4.1 8.9 1 1.6 2.2 3.1 3.6 5.1-1-0.1-1.8 0-2.1-0.3-1.2-1-2.4-2-3.3-3.3-1.3-1.9-2.2-4.1-3.3-6-1.2-2-2.4-3.9-2.9-6.2-0.5-0.1-0.9-0.2-1.2-0.2-3.7 0.7-7.1 2.3-10.3 4.4-0.5 0.3-0.8 0.9-1.2 1.4-0.6 0.8-1.3 1.6-2 2.5-0.8 1.2-1.8 2.3-1.8 3.9 0 0.2-0.1 0.5-0.2 0.7-1.7 2.8-2.4 5.8-1.5 9 0.2 0.4 0 1-0.1 1.4-0.1 0.4-0.2 0.8-0.2 1.1 0 1.3 1.5 2.3 0.9 3.8-0.5 1.2-0.1 2.3 0.5 3.4 0.4 0.6 0.3 1.4 0.5 2.1 0.1 0.4 0.1 0.8 0.4 1.1 1 0.9 2.4 1.6 2.4 3.3 1.3 0.6 1.8 2 2.7 2.9 0.5 0.5 1.1 1 1.7 1.3 1.6 0.9 3.3 1.6 4.9 2.4 1.5 0.8 2.9 1.8 4.5 2.3 1.9 0.5 3.7 1.6 6 0.6 1.1-0.5 2.6-0.1 3.9 0 1.7 0.2 3.2 0.1 4.7-1.1-0.8-1.5-1.4-3.1-2.2-4.5-1.7-2.8-2.6-5.9-3-9.2-0.1-0.4-0.1-0.4 1.1-1.1 0.7 1.6 1.7 3.2 2.2 4.9 1.2 3.7 3.3 6.9 5 10.4 0.5 0.9 1.4 1.6 2 2.5 1.8 2.4 4 4.5 5.9 6.8 1.3 1.6 3.2 2.7 4.9 3.8 2 1.3 4.1 2.5 6.2 3.6 0.9 0.4 2.1 0.1 3.1 0.5 0.9 0.3 1.5 1.3 2.4 1.5 1.1 0.3 2.3 0.1 4 0.1 0.4 0.3 1.2 1.2 2.2 1.4 1 0.3 2.1-0.1 3.2 0 1.5 0.1 3.2-0.6 4.6 0.5 0.2 0.2 0.8 0.3 1 0.2 2.4-1.2 5.4-0.4 7.6-2.4 0.5-0.4 1.3-0.4 2.1-0.5 2.3-0.2 4.5-0.8 6.1-2.6 0.4-0.5 1-0.7 1.6-0.9 0.8-0.2 1.2-0.6 1.5-1.4 0.2-1.1 1-1.6 2-1.9 1.8-0.4 3.5-1.1 4.4-2.9 0.3-0.5 0.9-0.8 1.4-1.2 0.3-0.3 0.9-0.6 1-1 1.2-3.6 4.6-5.5 6.6-8.5 0.2-0.4 0.4-0.9 0.5-1.3 0.3-1 0.9-1.7 1.8-2.2 1.1 0.4 1.1 1.4 0.9 2.1-0.7 2.7-0.6 5.7-2.9 7.7-0.7 1.9-2 3.2-3.9 4.1-0.7 0.4-1.4 1.1-1.7 1.9-0.7 2.2-2.3 3.6-4.1 4.9-0.2 0.1-0.3 0.4-0.4 0.6 0.9 0.9 1.8 1.8 2.7 2.7 0.8 0.8 1.7 1.4 2.9 0.9 1.2-0.4 2.1 0 3 0.8 0.5 0.4 1.1 0.9 1.6 0.8 3.1-0.5 6.1 1 9.2 0.5 2.5-0.4 5.1-0.5 7.5-1.2 1.1-0.3 2.5-0.1 3.5-0.7 4.5-2.4 9.6-3.5 13.7-6.6 1.5-1.1 3-2.2 4.4-3.3 1.2-1 2.4-2 3.8-2.8 1.6-0.9 3.1-2.2 4.2-3.9 0.3-0.4 0.9-0.7 1.6-1.2 0.4 2.1-1.4 2.7-1.9 3.9-0.5 1.2-1.5 2.2-2.4 3.2-0.9 1.1-1.9 2-3 3.1 1.7 0.7 3.2 1.2 4.6 1.7 0.6 0.2 1.2 0.3 1.8 0.3 1.8 0.1 3.6-0.1 5.4 0.6 3.4-0.4 6.6 1.2 10 0.6 0.4 0 0.8 0.2 1.1 0.1 1.1-0.7 2.2-1.2 3.7-1.1 1.2 0.1 2.6-0.5 3.8-0.9 0.6-0.1 1.1-0.6 1.6-0.8 1-0.4 2.1-0.6 3-1.2 0.9-0.6 1.7-1.2 2.7-1.6 1.6-0.6 2.9-1.7 4.3-2.5-0.3-0.4-0.4-0.8-0.5-0.8-0.9-0.3-2.2-0.2-2.8-0.7-1.9-1.8-4.4-2.4-6.5-3.9-0.4-0.2-0.6-0.7-0.9-1.1-0.4-0.5-0.6-1.2-1.1-1.4-2-0.7-2.8-2.5-4-4-1.2-1.3-2.5-2.5-3.5-4.1-0.5-0.8-0.5-1.6 0-2.6 0.6 0.3 1.5 0.4 1.8 0.9 2.9 3.8 7 6 10.8 8.5 3.5 2.3 7.4 3.8 11.3 4.9 2.5 0.7 5.2 0.9 7.9 0.9 2.1-0.1 4.3 0.2 6.5-0.3 0.8-0.1 1.7-0.2 2.4-0.6 0.8-0.4 1.6-0.5 2.4-0.2 0.5 0.2 1.1 0.3 1.4 0.2 0.9-0.5 1.6-1.2 2.5-1.6 0.7-0.3 1.6 0.5 2.4-0.2 1.9-1.6 4.6-2.1 6.3-4.1 0.1-0.2 0.4-0.3 0.6-0.4 2.3-0.4 3.3-2.4 4.6-3.9 1.2-1.5 1.8-3.4 3.2-4.7 0.4-0.4 0.4-1.1 0.6-1.7 0.2-1 0.1-2.1 0.6-2.9 1.5-2.5 1.7-5.4 2.3-8.2 0.2-0.7 0.2-1.5 0.1-2.2-0.2-1.9-0.3-3.9 0.4-5.6-0.7-2.5-2.3-4.5-2.3-7 0-0.4-0.4-0.9-0.7-1.3-1.4-1.3-2.5-2.9-3.4-4.6-0.2-0.5-0.8-1-1.3-1.1-1.4-0.5-2.4-1.5-3.5-2.4-1.9-1.5-4.2-2.4-6.4-3.6q-0.5-0.3-1-0.6c0.1-0.3 0.1-0.5 0.2-0.5 2.6 0.3 5.2 0.2 7.6 1.8 1.2 0.7 2.7 1 3.9 1.5 0.9-0.4 1-1.1 0.8-1.7-0.5-1.5 0.1-3.1-0.7-4.6-0.7-1.1-0.8-2.6-2.3-3.1q-0.2-0.1-0.3-0.2c-0.8-1.3-1.4-2.6-2.4-3.6-1-1-2.4-1.6-3.6-2.4-0.5-0.4-0.7-0.9-1.5-0.9-0.3 0-0.8-0.1-0.9-0.3-1.4-2.3-3.6-2.2-5.8-2.1-0.6 0-1.4 0.3-1.7 0-1.6-1.4-3.3-0.7-4.9-0.5-1.9 0.3-3.8 0.8-5.7 1.1-1.3 0.1-2.3 0.7-3.2 1.6-1.1 4.2-1.1 8.8-4.8 12-0.7-0.7-0.8-1.5-0.6-2.3 0.5-1.6 0.9-3.1 1.3-4.6 0.9-3.3 1.3-6.7 0.8-10.1-0.2-1.7-0.3-3.3-0.6-5-0.6-3.7-2.5-6.5-4.7-9.3-0.6-0.9-1-2-1.9-2.6-2.1-1.6-4.2-3.2-6.6-4.5-1.9-1-4.2-1.5-6.6-1.4-2.1 0.1-4.3 0-6.5 0-0.9 0-1.9 0.1-3 0.2 0.4 1.8 0.7 3.3 1 4.8 0.5 2.3 1.1 4.5 1.5 6.7 0.3 1.2 0.5 2.5 0.3 3.7-0.7 2.9 0.2 6-1.4 8.8-0.2 0.3-0.4 0.6-0.6 0.8-0.9 0-0.8-0.8-1-1.3-0.3-0.4-0.5-0.9-0.5-1.3-0.2-2-0.1-3.9-0.4-5.8-0.2-2-0.1-4.1-0.6-6.1-0.5-1.7-0.4-3.6-0.7-5.4-0.2-1.2-0.5-2.5-1.3-3.3-0.8-1-1.4-2-1.6-3.2-0.4-2.3-2-4.1-3-6.2-0.3-0.7-1.2-1.1-1.8-1.7-1.3-1.3-3.6-1.7-4-4-1.6-0.6-2.3-1.9-2.8-3.5-0.1-0.3-0.5-0.5-0.8-0.7-2.3-1.8-4.4-3.6-7.4-4.4-1.3-0.3-2.5-1.3-3.7-2.2-1-0.9-2.1-1.5-3.5-1.6-1.5-0.1-2.9-0.4-4-1.5-0.4-0.3-0.9-0.6-1.3-0.6-2.5-0.1-4.8-0.8-7.3-0.7-2.1 0-4.3 0.9-6.4 0.2-2.1-0.6-4.1-0.1-6.2-0.1-1.1 0-2.1 0-3.1 0.8-0.6 0.6-1.8 0.3-2.7 0.6-2.6 1-5.2 1.9-7.7 3-1.7 0.8-3.3 1.7-4.7 2.9-1.3 1.1-2.4 2.3-4.2 2.7-0.4 0.2-0.8 0.6-1 1-0.9 1.3-2.1 2.3-3.5 3.1-0.8 0.4-1.3 1.4-1.9 2.2-0.6 0.9-0.9 2-1.6 2.8-3.2 3-4.3 7.2-6.1 11-0.1 0.2-0.1 0.4-0.1 0.8 1.1 0.9 2 1.7 2.9 2.5zm125.3 19.8c0 0 0.1-0.2 0.2-0.2q-0.2-0.1-0.4-0.3-0.1 0.2-0.1 0.3c0.1 0.1 0.2 0.2 0.3 0.2z"/></svg>